<svg width="15" height="9" viewBox="0 0 15 9" fill="none" xmlns="http://www.w3.org/2000/svg">
<g clip-path="url(#clip0_201_4)">
<path d="M0 7.54V1.18C0 0.53 0.53 0 1.18 0C1.83 0 2.36 0.53 2.36 1.18V2.22C2.36 2.87 2.89 3.4 3.54 3.4H4.31C4.96 3.4 5.49 2.87 5.49 2.22V1.18C5.49 0.53 6.02 0 6.67 0C7.32 0 7.85 0.53 7.85 1.18V7.54C7.85 8.19 7.32 8.72 6.67 8.72C6.02 8.72 5.49 8.19 5.49 7.54V6.5C5.49 5.85 4.96 5.32 4.31 5.32H3.54C2.89 5.32 2.36 5.85 2.36 6.5V7.54C2.36 8.19 1.83 8.72 1.18 8.72C0.53 8.72 0 8.19 0 7.54ZM9 7.77V0.95C9 0.42 9.43 0 9.95 0H10.41C10.94 0 11.36 0.43 11.36 0.95V5.86C11.36 6.39 11.79 6.81 12.31 6.81H13.93C14.46 6.81 14.88 7.24 14.88 7.76C14.88 8.29 14.45 8.71 13.93 8.71H9.94C9.41 8.71 8.99 8.28 8.99 7.76L9 7.77Z" fill="black"/>
</g>
<defs>
<clipPath id="clip0_201_4">
<rect width="14.9" height="8.73" fill="white"/>
</clipPath>
</defs>
</svg>
