<svg width="301" height="54" viewBox="0 0 301 54" fill="none" xmlns="http://www.w3.org/2000/svg">
<path d="M75.1418 41.7354C73.2256 43.6598 70.7219 45.5772 68.2672 46.361C65.9523 47.1097 59.3435 47.6836 57.3993 42.2252C56.9797 41.0426 57.3224 40.6787 58.3924 40.3638C59.9869 39.8879 64.0921 38.6843 68.428 37.0538C72.3584 35.5842 75.8691 33.7858 76.9671 33.051C78.9323 31.7564 79.226 29.9369 78.3658 27.9845C75.6034 21.7774 69.3582 15.2764 58.9798 17.2568C50.7275 18.8313 44.818 26.263 44.818 34.7655C44.818 45.2903 51.1541 51.4484 59.2246 53.3588C66.6797 55.1363 75.4565 51.5184 79.205 45.4372C80.6876 43.0789 76.4985 40.3008 75.1418 41.7354ZM56.4622 33.4499C55.6509 31.2175 56.3013 24.3876 60.0638 23.093C64.0221 21.7354 66.4489 23.7788 67.6308 27.7676C68.0714 29.2441 67.9735 30.8047 67.4909 31.3995C66.7916 32.2462 65.5397 32.7571 64.4138 33.135L61.4485 34.1217C58.5322 35.1084 57.1475 35.3113 56.4622 33.4499Z" fill="black"/>
<path d="M171.778 41.7354C169.862 43.6598 167.358 45.5772 164.903 46.361C162.589 47.1097 155.98 47.6836 154.035 42.2252C153.616 41.0426 153.959 40.6787 155.029 40.3638C156.623 39.8879 160.728 38.6843 165.064 37.0538C168.995 35.5842 172.505 33.7858 173.603 33.051C175.568 31.7564 175.862 29.9369 175.002 27.9845C172.24 21.7774 165.994 15.2764 155.616 17.2568C147.364 18.8313 141.454 26.263 141.454 34.7655C141.454 45.2903 147.797 51.4484 155.861 53.3588C163.316 55.1363 172.086 51.5184 175.841 45.4372C177.324 43.0789 173.135 40.3008 171.778 41.7354ZM153.091 33.4499C152.609 32.1133 152.644 29.1392 153.553 26.6829C154.168 25.0314 155.084 23.7438 156.686 23.1C158.497 22.3722 160.043 22.5752 161.253 23.2679C162.637 24.0657 163.624 25.6402 164.253 27.7746C164.694 29.2511 164.596 30.8117 164.113 31.4065C163.414 32.2532 162.316 32.6871 161.036 33.142C159.756 33.6038 158.609 33.9677 158.071 34.1427C155.147 35.0524 153.777 35.3113 153.091 33.4499Z" fill="black"/>
<path d="M245.44 41.7354C243.524 43.6598 241.021 45.5772 238.566 46.361C236.251 47.1097 229.642 47.6836 227.698 42.2252C227.278 41.0426 227.621 40.6787 228.691 40.3638C230.286 39.8879 234.391 38.6843 238.727 37.0538C242.657 35.5842 246.168 33.7858 247.266 33.051C249.231 31.7564 249.525 29.9369 248.664 27.9845C245.902 21.7774 239.657 15.2764 229.278 17.2568C221.026 18.8313 215.117 26.263 215.117 34.7655C215.117 45.2903 221.453 51.4484 229.523 53.3588C236.978 55.1363 245.755 51.5184 249.504 45.4372C250.986 43.0789 246.797 40.3008 245.44 41.7354ZM226.754 33.4499C226.271 32.1133 226.306 29.1392 227.222 26.6829C227.838 25.0314 228.754 23.7438 230.355 23.1C232.167 22.3722 233.712 22.5752 234.922 23.2679C236.307 24.0657 237.293 25.6402 237.922 27.7746C238.363 29.2511 238.265 30.8117 237.783 31.4065C237.083 32.2532 235.985 32.6871 234.705 33.142C233.426 33.6038 232.286 33.9677 231.74 34.1427C228.81 35.0524 227.439 35.3113 226.754 33.4499Z" fill="black"/>
<path d="M28.1385 43.7368C28.1385 45.1503 27.6979 46.6969 26.607 47.1797L24.2571 48.2434C23.8375 48.4393 23.7186 48.7472 23.7186 49.2161C23.7186 49.3351 23.7256 49.405 23.7536 49.566L24.0333 52.2392C24.1592 52.967 24.6558 53.0859 25.6139 53.0859H42.657C43.6221 53.0859 44.1187 52.967 44.2376 52.2392L44.5173 49.566C44.5383 49.405 44.5523 49.3351 44.5523 49.2161C44.5523 48.7472 44.4334 48.4393 44.0138 48.2434L41.664 47.1797C40.58 46.6969 40.1324 45.1503 40.1324 43.7368V14.1987C40.1324 12.7851 40.573 11.2386 41.664 10.7557L44.0138 9.69206C44.4334 9.50311 44.5523 9.18821 44.5523 8.71935C44.5523 8.60039 44.5453 8.53041 44.5173 8.36946L44.2376 6.36107C44.1117 5.63329 43.6151 5.51432 42.657 5.51432H26.4041C25.439 5.51432 24.9425 5.63329 24.8236 6.36107L24.5439 8.36946C24.5229 8.53041 24.5089 8.60039 24.5089 8.71935C24.5089 9.18821 24.6278 9.49612 25.0474 9.69206L26.9636 10.7557C28.0616 11.3855 28.1315 12.7921 28.1315 14.1987V22.4352C28.1315 23.009 27.67 23.4709 27.0965 23.4709H17.8651C17.2916 23.4709 16.83 23.009 16.83 22.4352V14.1987C16.83 12.7851 16.9 11.3855 17.998 10.7557L19.9142 9.69206C20.3338 9.50311 20.4527 9.18821 20.4527 8.71935C20.4527 8.60039 20.4457 8.53041 20.4177 8.36946L20.138 6.36107C20.0121 5.63329 19.5155 5.51432 18.5574 5.51432H2.32554C1.36043 5.51432 0.863895 5.63329 0.745005 6.36107L0.465265 8.36946C0.444285 8.53041 0.430298 8.60039 0.430298 8.71935C0.430298 9.18821 0.549187 9.49612 0.968797 9.69206L3.31861 10.7557C4.4026 11.2386 4.85019 12.7921 4.85019 14.1987V43.7368C4.85019 45.1503 4.4096 46.6969 3.31861 47.1797L0.968797 48.2434C0.549187 48.4393 0.430298 48.7472 0.430298 49.2161C0.430298 49.3351 0.437291 49.405 0.465265 49.566L0.745005 52.2392C0.870888 52.967 1.36743 53.0859 2.32554 53.0859H19.3687C20.3338 53.0859 20.8303 52.967 20.9492 52.2392L21.229 49.566C21.2499 49.405 21.2639 49.3351 21.2639 49.2161C21.2639 48.7472 21.145 48.4393 20.7254 48.2434L18.3756 47.1797C17.2916 46.6969 16.844 45.1503 16.844 43.7368V31.7284C16.844 31.1546 17.3056 30.6927 17.8791 30.6927H27.1105C27.684 30.6927 28.1455 31.1546 28.1455 31.7284V43.7368H28.1385Z" fill="black"/>
<path d="M95.3111 10.4898C95.3111 13.7718 92.5556 16.431 89.1568 16.431C85.758 16.431 83.0095 13.7718 83.0095 10.4898C83.0095 7.20781 85.765 4.54862 89.1568 4.54862C92.5556 4.54862 95.3111 7.20781 95.3111 10.4898Z" fill="black"/>
<path d="M82.436 53.0789C81.5129 53.0789 81.0373 52.967 80.9184 52.2672L80.6527 49.601C80.6317 49.447 80.6317 49.377 80.6317 49.2651C80.6317 48.8172 80.7576 48.5443 81.1352 48.3344L82.9675 47.3127C83.9816 46.8228 84.4362 45.3603 84.4362 44.0097V27.1448C84.4362 25.7312 84.1914 23.9328 82.9536 23.3099L81.7786 22.6311C81.359 22.4422 81.2401 22.1273 81.2401 21.6654C81.2401 21.5465 81.2471 21.4765 81.2751 21.3155L81.5549 19.3072C81.6807 18.5794 82.1773 18.4604 83.1354 18.4604H94.6467C95.2201 18.4604 95.6817 18.9223 95.6817 19.4961V44.0097C95.6817 45.3673 96.1363 46.8228 97.1504 47.3127L98.9826 48.3344C99.3673 48.5443 99.4862 48.8172 99.4862 49.2651C99.4862 49.377 99.4932 49.454 99.4652 49.601L99.1994 52.2672C99.0806 52.967 98.605 53.0789 97.6819 53.0789H82.436Z" fill="black"/>
<path d="M117.278 20.2589C117.278 20.2589 117.928 19.944 119.089 19.3771C121.397 18.2925 125.908 16.354 129.635 17.5437C132.866 18.5794 135.657 20.9237 135.657 27.0818C135.657 34.0797 135.657 43.002 135.657 45.7451C135.657 46.5429 135.691 46.8718 136.062 47.0747C136.559 47.3477 137.419 46.5359 138.244 46.109C139.076 45.6822 139.538 46.186 140.048 46.7458C140.496 47.2427 141.028 47.9355 140.594 48.8522C139.216 51.7423 136.132 53.4008 132.516 53.4008C129.104 53.4008 124.761 51.4414 124.761 46.326C124.761 41.2105 124.761 30.6437 124.761 28.3554C124.761 25.6122 122.768 24.6535 121.222 24.8495C118.886 25.1364 117.187 27.0958 117.187 30.5807V44.0097C117.187 45.3673 117.641 46.8228 118.655 47.3127L120.488 48.3344C120.872 48.5443 120.991 48.8172 120.991 49.2651C120.991 49.377 120.998 49.454 120.97 49.601L120.704 52.2672C120.586 52.967 120.11 53.0789 119.187 53.0789H103.934C103.011 53.0789 102.535 52.967 102.416 52.2672L102.151 49.601C102.13 49.447 102.13 49.377 102.13 49.2651C102.13 48.8172 102.256 48.5443 102.633 48.3344L104.466 47.3127C105.48 46.8228 105.934 45.3603 105.934 44.0097V27.1448C105.934 25.7312 105.696 23.9328 104.459 23.3099L103.284 22.6311C102.864 22.4422 102.745 22.1273 102.745 21.6654C102.745 21.5465 102.752 21.4765 102.78 21.3155L103.06 19.3072C103.186 18.5794 103.682 18.4604 104.64 18.4604H115.487C116.34 18.4604 116.669 18.9503 116.914 19.4961L117.278 20.2589Z" fill="black"/>
<path d="M266.12 20.2589C266.12 20.2589 266.771 19.944 267.932 19.3771C270.239 18.2925 274.75 16.354 278.478 17.5437C281.709 18.5794 284.499 20.9237 284.499 27.0818C284.499 34.0797 284.499 43.002 284.499 45.7451C284.499 46.5429 284.534 46.8718 284.905 47.0747C285.401 47.3477 286.261 46.5359 287.087 46.109C287.919 45.6822 288.381 46.186 288.891 46.7458C289.339 47.2427 289.87 47.9355 289.437 48.8522C288.059 51.7423 284.975 53.4008 281.359 53.4008C277.946 53.4008 273.603 51.4414 273.603 46.326C273.603 41.2105 273.603 30.6437 273.603 28.3554C273.603 25.6122 271.61 24.6535 270.065 24.8495C267.729 25.1364 266.029 27.0958 266.029 30.5807V44.0097C266.029 45.3673 266.484 46.8228 267.498 47.3127L269.33 48.3344C269.715 48.5443 269.834 48.8172 269.834 49.2651C269.834 49.377 269.841 49.454 269.813 49.601L269.547 52.2672C269.428 52.967 268.953 53.0789 268.029 53.0789H252.777C251.853 53.0789 251.378 52.967 251.259 52.2672L250.993 49.601C250.972 49.447 250.972 49.377 250.972 49.2651C250.972 48.8172 251.098 48.5443 251.476 48.3344L253.308 47.3127C254.322 46.8228 254.777 45.3603 254.777 44.0097V27.1448C254.777 25.7312 254.539 23.9328 253.294 23.3099L252.119 22.6311C251.7 22.4422 251.581 22.1273 251.581 21.6654C251.581 21.5465 251.588 21.4765 251.616 21.3155L251.895 19.3072C252.021 18.5794 252.518 18.4604 253.476 18.4604H264.323C265.176 18.4604 265.505 18.9503 265.75 19.4961L266.12 20.2589Z" fill="black"/>
<path d="M210.886 44.4785C211.697 45.7801 212.683 46.8228 213.697 47.3197L215.529 48.3414C215.914 48.5513 216.033 48.8242 216.033 49.2721C216.033 49.384 216.033 49.461 216.012 49.608L215.746 52.2742C215.627 52.974 215.152 53.0859 214.228 53.0859H205.018C203.445 53.0859 203.326 52.6311 202.612 51.3434L194.891 37.2777L191.989 40.0629V44.0237C191.989 45.3812 192.626 46.7948 193.682 47.3267L195.514 48.3484C195.899 48.5583 196.017 48.8312 196.017 49.2791C196.017 49.391 196.024 49.468 195.996 49.615L195.731 52.2812C195.612 52.981 195.136 53.0929 194.213 53.0929H178.974C178.051 53.0929 177.576 52.981 177.457 52.2812L177.191 49.615C177.17 49.461 177.17 49.391 177.17 49.2791C177.17 48.8312 177.296 48.5583 177.673 48.3484L179.506 47.3267C180.52 46.8368 180.974 45.3743 180.974 44.0237V13.8278C180.974 12.4772 180.555 11.0636 179.506 10.5248L177.673 9.50312C177.289 9.29318 177.17 9.02027 177.17 8.5724C177.17 8.46043 177.163 8.39045 177.191 8.23649L177.457 6.33307C177.576 5.63328 178.051 5.52132 178.974 5.52132H190.031C191.115 5.52132 191.996 6.40306 191.996 7.48773V30.4128L196.913 25.9691C197.612 25.3673 198.759 24.3596 199.206 23.9118C199.654 23.4639 199.745 22.7991 199.109 22.5332L197.374 21.7494C196.99 21.5745 196.878 21.2945 196.878 20.8677C196.878 20.7627 196.885 20.6927 196.906 20.5458L197.157 18.1105C197.269 17.4457 197.724 17.3407 198.598 17.3407H211.837C212.711 17.3407 213.165 17.4457 213.277 18.1105L213.529 20.5458C213.55 20.6927 213.557 20.7627 213.557 20.8677C213.585 21.3925 212.963 21.6514 212.578 21.8264C212.578 21.8264 211.634 22.0993 210.781 22.5892C209.928 23.079 209.011 23.8068 207.864 24.8425L202.759 29.748L210.886 44.4785Z" fill="black"/>
<path d="M282.142 9.13923C282.142 14.1987 286.241 18.2995 291.29 18.2995C296.339 18.2995 300.437 14.1987 300.437 9.13923C300.437 4.08676 296.339 0 291.29 0C286.234 0 282.142 4.08676 282.142 9.13923ZM291.283 16.34C287.304 16.34 284.087 13.121 284.087 9.13923C284.087 5.17143 287.304 1.94541 291.283 1.94541C295.248 1.94541 298.479 5.16443 298.479 9.13923C298.486 13.121 295.255 16.34 291.283 16.34Z" fill="black"/>
<path d="M287.52 13.5899H289.779V9.74105C289.786 9.74105 289.919 9.75504 290.681 9.79003C291.814 9.83901 292.402 10.042 292.737 11.0986C292.975 11.8334 293.087 12.5192 293.556 13.5899C294.556 13.6109 294.836 13.6109 295.871 13.6109C295.626 12.9951 295.255 12.2533 295.094 11.2106C294.926 10.1259 294.556 9.53111 293.752 8.98527C294.486 8.71935 295.227 7.80963 295.227 6.48003C295.227 4.38766 293.045 3.73686 292.248 3.73686C291.444 3.73686 287.527 3.73686 287.527 3.73686V13.5899H287.52ZM291.612 7.77464C290.842 7.77464 289.786 7.77464 289.786 7.77464V5.52832C289.786 5.52832 290.681 5.52832 291.381 5.52832C292.073 5.52832 292.905 5.82223 292.905 6.59899C292.905 7.28479 292.374 7.77464 291.612 7.77464Z" fill="black"/>
</svg>
