<svg width="301" height="65" viewBox="0 0 301 65" fill="none" xmlns="http://www.w3.org/2000/svg">
<path d="M181.387 50.8317C191.085 50.8317 193.603 49.3404 199.478 49.154C206.099 48.9675 209.27 50.086 209.27 50.086C208.804 48.2219 208.431 46.1713 210.482 40.8585C211.975 37.0371 213.653 32.4699 215.332 28.1824C219.155 18.116 210.949 13.7353 197.52 13.7353C189.127 13.7353 184.837 14.481 180.268 15.2266L177.097 23.4288C180.081 22.4968 186.609 20.8191 196.028 20.9123C204.887 21.0055 204.141 24.6405 203.582 26.4115C200.504 26.2251 194.909 25.9454 188.568 26.4115C184.464 26.6911 180.548 27.2503 176.538 28.8348C170.569 31.165 167.865 35.3593 167.492 40.2061C167.119 45.6121 170.942 50.8317 181.387 50.8317ZM180.361 38.7148C180.921 35.5457 183.345 33.868 189.966 33.1224C193.324 32.7495 196.401 32.6563 200.97 32.936L197.893 40.9518C195.189 42.3499 191.272 43.1887 187.635 43.3751C181.574 43.5615 179.895 41.2314 180.361 38.7148Z" fill="#F5010B"/>
<path d="M105.011 50.086L123.756 1.71161H111.353L92.5154 50.086H105.011Z" fill="#F5010B"/>
<path d="M120.678 46.917C123.01 49.4336 126.46 50.3656 130.563 50.552C136.625 50.8317 142.22 49.62 147.536 46.1713C144.458 55.3988 133.827 57.3562 126.647 57.263C123.196 57.263 119.373 57.0765 116.295 55.6784L113.125 63.5078C116.295 64.3467 120.958 64.9059 124.688 64.9059C142.22 64.9059 153.504 58.6611 158.167 46.3577L170.103 14.8538C170.103 14.8538 166.56 15.7859 164.135 15.7859C157.7 15.7859 157.421 14.0149 146.976 14.0149C131.962 14.0149 119.652 25.0133 117.881 37.2235C117.414 41.0449 118.44 44.4936 120.678 46.917ZM132.522 31.3514C135.785 24.2677 142.407 21.0054 146.696 20.9122C149.867 20.819 152.478 21.2851 154.53 23.2424C149.587 42.443 139.609 43.9344 136.625 43.9344C129.351 43.9344 130.004 36.8506 132.522 31.3514Z" fill="#F5010B"/>
<path d="M15.1141 28.5552C17.1657 17.0908 28.263 8.42252 41.4119 8.42252C45.4218 8.42252 49.0587 9.16817 52.3227 10.5663L56.1461 3.10972C52.8822 1.61841 48.3127 0.68634 44.023 0.68634C23.0407 0.68634 3.45725 12.6168 0.659611 28.5552C-1.76501 42.6295 10.3581 50.4589 25.2788 50.4589C29.2888 50.4589 33.765 49.8064 37.4019 48.9675L41.4119 40.0197C39.1738 41.1382 33.5785 42.7227 29.2888 42.7227C17.4454 42.7227 13.9018 35.5457 15.1141 28.5552Z" fill="#F5010B"/>
<path d="M274.548 13.4557C261.026 13.4557 249.463 21.0055 246.479 31.8175C244.987 37.3167 245.733 42.0702 248.717 45.7053C251.981 49.7132 257.763 51.857 264.943 51.857C269.14 51.857 274.082 51.1113 278.652 49.7132L282.382 42.0702C278.931 43.7479 272.87 44.68 268.86 44.68C265.316 44.68 262.425 43.4683 260.747 41.3246C259.161 39.3672 258.788 36.7574 259.534 33.9612H288.164L288.257 33.5884C290.495 27.3435 290.215 21.9375 287.417 18.3957C284.993 15.1334 280.61 13.4557 274.548 13.4557ZM277.719 27.9028H261.493C262.705 24.0813 266.342 19.7938 272.87 19.7938C275.108 19.7938 276.693 20.353 277.626 21.4715C278.652 22.8696 278.652 25.1066 277.719 27.9028Z" fill="#F5010B"/>
<path d="M296.37 11.9644C297.023 11.6848 297.489 11.3119 297.489 10.8459C297.489 10.3799 297.302 10.007 297.023 9.82061C296.65 9.54099 296.183 9.44778 295.064 9.44778C294.039 9.44778 293.292 9.54099 293.013 9.6342V14.3878H294.505V12.6168H294.971C295.437 12.6168 295.717 12.8964 295.81 13.3625C295.904 13.8285 295.997 14.2013 296.183 14.3878H297.862C297.769 14.2013 297.675 13.9217 297.489 13.2693C297.209 12.5236 296.836 12.1508 296.37 11.9644ZM294.878 11.5915H294.412V10.4731C294.505 10.4731 294.691 10.4731 294.878 10.4731C295.344 10.4731 295.717 10.6595 295.717 11.0323C295.717 11.4051 295.437 11.5915 294.878 11.5915Z" fill="#F5010B"/>
<path d="M295.158 6.74478H295.064C292.08 6.74478 289.749 9.07496 289.749 11.8712C289.749 14.7606 292.08 17.0908 295.064 17.0908C298.048 17.0908 300.38 14.7606 300.38 11.8712C300.38 9.07496 298.048 6.74478 295.158 6.74478ZM295.064 15.7859C292.919 15.7859 291.334 14.0149 291.334 11.9644C291.334 9.82061 292.919 8.04968 294.971 8.04968C297.209 8.04968 298.794 9.7274 298.794 11.8712C298.794 14.0149 297.209 15.7859 295.064 15.7859Z" fill="#F5010B"/>
<path d="M93.4479 30.0465C95.7793 19.7938 86.7336 14.0149 74.797 14.0149C62.2077 14.0149 48.3127 21.5647 45.7016 34.334C42.9972 47.9423 55.1203 50.8317 62.8604 50.9249C80.299 51.1113 90.9301 40.6721 93.4479 30.0465ZM80.6721 28.462C77.5014 44.0276 67.9894 44.8664 66.2176 44.8664C63.2335 44.8664 60.9953 44.1208 59.783 42.6295C58.3842 41.0449 58.0112 38.5284 58.7572 35.1729C59.9695 29.1144 65.1918 20.1666 74.6105 20.1666C76.8486 20.1666 78.6205 20.819 79.6463 22.0307C80.7653 23.522 81.2316 25.759 80.6721 28.462Z" fill="#F5010B"/>
<path d="M232.211 42.1634C231.465 41.1381 231.651 39.0876 232.77 36.1982C232.77 36.1982 238.552 22.0307 239.485 19.6073H248.251L250.489 13.8285H241.723L244.334 6.74478L231.092 8.98175L229.32 13.7353H223.445L221.3 19.5141H227.082L220.088 36.7574C218.316 41.1381 218.223 44.3072 219.808 46.5441C221.393 48.6879 224.471 49.7132 229.32 49.7132C232.024 49.7132 235.661 49.1539 238.552 48.4083L241.35 41.6042C239.764 42.2566 237.153 42.9091 235.102 43.0023C233.61 43.1887 232.77 42.9091 232.211 42.1634Z" fill="#F5010B"/>
</svg>
