<svg width="301" height="176" viewBox="0 0 301 176" fill="none" xmlns="http://www.w3.org/2000/svg">
<path d="M241.19 127.716H300.977V175.914H240.836L225.977 161.738V141.892L241.19 127.716Z" fill="#FFF000"/>
<path d="M54.751 38.0535L55.8123 37.6991C56.5199 37.3447 57.5812 36.6359 58.6425 35.9271C59.7038 35.2183 60.7652 34.1551 61.8265 33.0919C62.8878 32.0287 63.5953 30.6112 64.6567 28.4848C65.3642 26.7128 65.718 24.5864 65.718 22.46C65.718 17.144 63.2416 12.1825 58.2887 8.2841C53.3359 4.38572 46.6142 2.25934 38.1236 2.25934H0.977417V78.1004H40.2463C50.1519 78.1004 71.0246 76.3285 71.0246 56.4822C71.0246 41.2431 55.1048 38.0535 54.751 38.0535ZM25.3878 19.9792H34.5859C36.3548 19.9792 37.7699 20.3336 39.185 21.7512C40.2463 22.8144 40.9538 24.232 40.9538 25.6496C40.9538 27.0672 40.2463 28.4848 39.185 29.548C37.7699 30.6112 36.3548 31.3199 34.5859 31.3199H25.3878V19.9792ZM42.3689 58.6086C40.9538 60.0262 39.185 60.735 37.0623 60.735H25.3878V47.2678H37.0623C39.185 47.2678 40.9538 47.9766 42.3689 49.3942C43.784 50.8118 44.4916 52.2294 44.4916 54.3558C44.4916 55.7734 43.784 57.191 42.3689 58.6086Z" fill="#122028"/>
<path d="M74.2085 122.046L75.2698 121.691C75.9774 121.337 77.0387 120.628 78.1 119.919C79.1613 119.211 80.2227 118.147 81.284 117.084C82.3453 116.021 83.0529 114.603 84.1142 112.477C84.8217 110.705 85.1755 108.579 85.1755 106.452C85.1755 101.136 82.6991 96.1747 77.7463 92.2764C72.7934 88.378 66.0717 86.2516 57.5812 86.2516H20.4349V162.093H59.35C69.2557 162.093 90.1283 160.321 90.1283 140.474C90.4821 125.235 74.5623 122.4 74.2085 122.046ZM45.1991 103.971H54.0434C55.8123 103.971 57.2274 104.68 58.6425 105.743C59.7038 106.807 60.4113 108.224 60.4113 109.642C60.4113 111.059 59.7038 112.477 58.6425 113.54C57.5812 114.603 56.1661 115.312 54.0434 115.312H45.1991V103.971ZM61.8264 142.601C60.4114 144.018 58.6425 144.727 56.5198 144.727H45.1991V131.26H56.5198C58.6425 131.26 60.4114 131.969 61.8264 133.386C63.2415 134.804 63.9491 136.222 63.9491 138.348C63.9491 139.766 63.2415 141.183 61.8264 142.601Z" fill="#122028"/>
<path d="M133.643 59.6718H97.2038V47.9766H126.921V30.6112H97.2038V20.688H133.643V2.25934H72.4397V78.1004H133.643V59.6718Z" fill="#122028"/>
<path d="M196.26 2.25934V20.688H216.426V78.1004H240.836V20.688H260.647V2.25934H196.26Z" fill="#122028"/>
<path d="M168.666 58.6086C167.251 59.6717 165.482 60.3805 163.006 60.3805C160.529 60.3805 158.053 59.6717 155.576 58.2542C153.1 56.8366 151.331 55.7734 150.27 55.0646C149.916 54.7102 149.209 54.3558 148.855 54.0014L134.35 67.8229L135.411 68.8861C136.119 69.9493 137.534 71.0125 139.303 72.0757C141.072 73.4933 143.194 74.5565 145.671 75.974C148.147 77.3916 150.977 78.4548 154.869 79.1636C158.407 80.2268 162.298 80.5812 166.19 80.5812C175.742 80.5812 183.525 78.1004 189.185 73.1389C194.845 68.1773 197.675 62.1525 197.675 55.0646C197.675 51.1662 196.968 47.2678 195.199 44.4326C193.43 41.2431 191.661 39.1167 189.185 37.3447C186.709 35.9271 184.232 34.5095 181.402 33.0919C178.926 32.0287 176.449 30.9655 173.973 30.6111C173.619 30.6111 173.619 30.6111 173.265 30.6111C170.789 29.9023 168.666 29.1935 167.251 28.1304C165.482 27.0672 164.775 26.3584 164.775 24.9408C164.775 23.5232 165.482 22.46 166.543 21.3968C167.605 20.3336 169.374 19.9792 171.496 19.9792C176.449 19.9792 179.633 22.1056 181.048 23.8776L195.553 10.0561L195.199 9.70167C194.492 8.99288 193.43 7.92968 192.015 6.86649C190.6 5.8033 188.831 4.7401 186.709 3.67691C184.586 2.61372 182.109 1.55053 178.572 0.84173C175.034 0.487332 171.496 0.132935 167.959 0.132935C158.76 0.132935 151.685 2.61372 146.025 7.22089C140.364 12.1825 137.534 17.8528 137.534 24.232C137.534 27.776 138.242 30.9655 139.303 33.4463C140.364 36.2815 142.133 38.4079 143.902 40.1799C145.671 41.9519 147.793 43.3695 150.27 44.4326C152.392 45.4958 154.161 46.2046 156.284 46.9134C156.638 46.9134 156.992 47.2678 157.345 47.2678C159.822 47.9766 161.944 48.6854 163.713 49.3942C165.482 50.103 167.251 50.8118 168.312 51.5206C169.374 52.2294 170.081 53.2926 170.081 54.0014C170.789 56.1278 170.081 57.5454 168.666 58.6086Z" fill="#122028"/>
<path d="M133.642 131.26C133.642 136.222 129.751 140.474 124.444 140.474C119.492 140.474 115.246 136.576 115.246 131.26V86.2516H90.8359V130.197C90.8359 148.271 105.341 163.156 123.737 163.156H125.152C143.194 163.156 158.053 148.626 158.053 130.197V86.2516H133.642V131.26Z" fill="#122028"/>
<path d="M199.798 112.123L183.878 86.2516H159.468L187.77 135.158V162.093H212.18V135.158L240.482 86.2516H216.072L199.798 112.123Z" fill="#122028"/>
<path d="M238.006 151.815C238.006 153.587 236.591 154.65 235.176 154.65C233.76 154.65 232.345 153.233 232.345 151.815C232.345 150.043 233.76 148.98 235.176 148.98C236.591 148.98 238.006 150.043 238.006 151.815Z" fill="#122028"/>
<path d="M241.19 108.224H239.421V107.515H243.666V108.224H241.897V113.54H241.19V108.224ZM244.727 107.515H245.789L247.558 112.123L249.326 107.515H250.388V113.186H249.68V108.224L247.558 113.186H247.204L245.081 108.224V113.186H244.374V107.515H244.727Z" fill="#122028"/>
</svg>
