<svg width="301" height="64" viewBox="0 0 301 64" fill="none" xmlns="http://www.w3.org/2000/svg">
<path d="M49.139 57.3628C35.189 57.3628 23.9015 45.9905 23.9015 31.9821C23.9015 17.9737 35.189 6.63899 49.139 6.63899C54.0515 6.63899 58.664 8.0323 62.5265 10.48L49.139 31.9821L74.339 17.3712C71.6015 13.003 67.664 9.19966 62.939 6.33774C56.9015 2.76033 48.5015 0.500916 39.2015 0.500916C25.9265 0.500916 14.3015 5.321 7.814 12.5888C3.014 17.9361 0.164001 24.6766 0.164001 32.0197C0.164001 39.3628 3.014 46.1034 7.814 51.4507C14.3015 58.7185 25.7765 63.5009 38.8265 63.5009C51.8765 63.5009 63.314 58.6808 69.839 51.4507C70.1765 51.0365 70.5515 50.6599 70.8515 50.2457L69.8765 46.5553C65.3015 53.07 57.7265 57.3628 49.139 57.3628Z" fill="#CC0000"/>
<path d="M132.689 61.9947L122.114 22.3796C120.427 15.9779 114.614 11.2708 107.714 11.2708C105.914 11.2708 104.189 11.6097 102.614 12.1746L79.8515 20.4968H103.251L107.264 35.4842C103.364 32.1327 98.339 30.0993 92.789 30.0993C81.8015 30.0993 72.914 37.48 72.914 46.6306C72.914 55.7436 81.8015 63.162 92.789 63.162C100.702 63.162 107.714 59.2834 112.026 53.2959L114.352 61.9947H132.689ZM100.439 55.8189C95.3765 55.8189 91.2515 51.7143 91.2515 46.593C91.2515 41.5093 95.3765 37.367 100.439 37.367C105.501 37.367 109.626 41.5093 109.626 46.593C109.626 51.7143 105.501 55.8189 100.439 55.8189Z" fill="#CC0000"/>
<path d="M175.814 11.2708C174.426 11.2708 173.114 11.5721 171.951 12.1369L157.326 18.9905C156.614 14.6223 152.826 11.3085 148.251 11.3085C146.864 11.3085 145.551 11.6097 144.351 12.1746L126.501 20.5344H139.064V62.0323H157.439V25.1286C157.439 22.5679 159.501 20.4968 162.014 20.4968C164.526 20.4968 166.589 22.5679 166.589 25.1286V62.0323H184.964V20.4968C184.964 15.3754 180.876 11.2708 175.814 11.2708Z" fill="#CC0000"/>
<path d="M290.977 11.2708C289.589 11.2708 288.276 11.5721 287.076 12.1369L272.489 18.9528C271.777 14.5846 267.989 11.2708 263.414 11.2708C262.027 11.2708 260.714 11.5721 259.514 12.1369L241.664 20.4968H254.227V61.9947H272.602V25.0909C272.602 22.5302 274.664 20.4591 277.214 20.4591C279.764 20.4591 281.789 22.5302 281.789 25.0909V61.9947H300.164V20.4968C300.164 15.3754 296.039 11.2708 290.977 11.2708Z" fill="#CC0000"/>
<path d="M244.664 37.4047C244.664 51.8273 233.039 63.5386 218.676 63.5386C204.314 63.5386 192.651 51.8273 192.651 37.4047C192.651 22.9821 204.314 11.2708 218.676 11.2708C233.039 11.2708 244.664 22.9821 244.664 37.4047ZM219.726 19.1788C218.901 16.0909 215.751 14.2834 212.714 15.1118C209.639 15.9403 207.839 19.1034 208.664 22.1537L217.589 55.5553C218.414 58.6432 221.564 60.4507 224.601 59.6599C227.676 58.8315 229.476 55.6683 228.651 52.5804L219.726 19.1788Z" fill="#CC0000"/>
</svg>
