<svg width="301" height="52" viewBox="0 0 301 52" fill="none" xmlns="http://www.w3.org/2000/svg">
<path d="M133.673 24.3267C133.673 21.5449 133.673 18.6917 133.673 15.9099C131.254 15.9099 128.836 15.9099 126.417 15.9099C126.417 12.8428 126.417 9.77563 126.417 6.7085C123.216 6.7085 120.014 6.7085 116.813 6.7085V15.9099H112.829C112.829 18.6917 112.829 21.5449 112.829 24.398H116.813C116.813 26.9658 116.813 29.5337 116.813 32.1015C116.813 32.3155 116.813 32.5295 116.813 32.7435V33.2428C116.813 34.7407 116.813 36.2386 116.813 37.7365C116.884 41.8022 118.378 46.1533 121.793 48.5071C124.781 50.647 128.551 51.0749 132.108 51.0036C129.191 47.9365 127.413 43.4428 126.701 39.805V39.7337V39.6623C126.63 38.8777 126.488 37.5938 126.488 36.2386C126.488 35.9532 126.417 35.6679 126.417 35.3826C126.417 34.6693 126.417 33.956 126.417 33.1714C126.417 30.247 126.417 27.3225 126.417 24.398C128.836 24.3267 131.254 24.3267 133.673 24.3267Z" fill="#1B3D6D"/>
<path d="M111.122 9.34771C111.122 6.49457 111.122 3.71275 111.122 0.8596C106.426 0.0749849 100.948 0.3603 97.178 3.64142C93.7633 6.70855 93.123 11.5589 93.2653 15.8386H93.1942H89.1392C89.1392 18.6918 89.1392 21.4736 89.1392 24.3267H92.6251C92.8385 24.3267 93.0519 24.3267 93.2653 24.3267V28.9631C93.2653 35.882 93.2653 42.8009 93.2653 49.7197H97.676C99.4545 49.7197 101.162 49.7197 102.94 49.7197C102.94 42.7295 102.94 35.668 102.94 28.6778V24.3267H109.414C109.414 21.4736 109.414 18.6918 109.414 15.8386H102.869C102.94 13.9127 102.727 11.6302 104.292 10.275C106.213 8.70575 108.845 9.20506 111.122 9.34771Z" fill="#1B3D6D"/>
<path d="M75.907 49.7198H80.2466H82.6654H85.3687C85.2976 42.4443 85.4399 35.2401 85.2976 27.9645C85.2265 23.6848 83.5902 18.9771 79.5352 16.9799C73.7728 14.1268 66.9433 14.7687 60.8252 15.7673C60.8252 18.8345 60.8252 21.9016 60.8252 24.9687C64.8091 24.1128 69.1487 23.1855 73.0614 24.6834C74.9111 25.3254 75.5513 27.2513 75.8359 28.9632C73.0614 28.6065 70.2869 27.9645 67.5124 28.5352C64.24 28.9632 60.9675 30.5324 59.1178 33.3855C56.1299 37.8792 56.9836 44.6555 61.3943 47.9366C65.5916 51.1464 71.6386 50.7897 75.8359 47.8653C75.907 48.3646 75.907 49.2918 75.907 49.7198ZM75.4802 42.3729C72.9903 43.1576 70.0024 43.9422 67.7259 42.2303C65.6628 40.8037 65.9473 37.2373 68.1527 36.096C70.4292 34.8834 73.0614 35.3114 75.5513 35.8107C75.7647 38.0219 75.7647 40.2331 75.4802 42.3729Z" fill="#1B3D6D"/>
<path d="M26.2509 3.85535C30.0925 3.85535 34.0052 3.85535 37.8468 3.85535C32.1555 11.4875 26.6066 19.2623 20.9153 26.8945C25.9663 34.5267 31.0173 42.1588 36.1394 49.7197C32.1555 49.7197 28.1005 49.7197 24.1167 49.7197C19.5637 42.9435 15.0818 36.1672 10.6711 29.3197C10.6711 36.0959 10.6711 42.9435 10.6711 49.7197C7.18519 49.7197 3.77044 49.7197 0.284546 49.7197C0.284546 34.4553 0.284546 19.1197 0.284546 3.85535C3.77044 3.85535 7.18519 3.85535 10.6711 3.85535C10.6711 11.0595 10.6711 18.2637 10.6711 25.5393C15.8643 18.2637 21.0576 11.0595 26.2509 3.85535Z" fill="#1B3D6D"/>
<path d="M38.4871 15.9813C41.7595 15.9813 45.032 15.9813 48.3045 15.9813C48.3045 18.1212 48.3045 20.3324 48.2333 22.4722C49.7984 18.9058 53.2132 16.552 57.0548 15.9813C57.0548 19.1911 57.1259 22.4009 56.9836 25.6107C52.8575 26.11 48.5179 29.2485 48.3756 33.7422C48.2333 39.0918 48.3756 44.4415 48.3756 49.7911C45.1031 49.7911 41.7595 49.7911 38.4871 49.7911C38.5582 38.4499 38.5582 27.2513 38.4871 15.9813Z" fill="#1B3D6D"/>
<path fill-rule="evenodd" clip-rule="evenodd" d="M212.284 42.8722C210.932 43.4429 210.647 43.6569 209.011 44.2275C207.375 44.7981 205.454 44.7981 203.818 44.2275C198.625 42.0163 201.897 34.0988 201.897 34.0988C223.168 28.8918 220.18 17.4079 214.418 16.8373C210.861 16.8373 198.055 17.4079 192.008 32.1729C191.226 34.3841 185.464 49.9338 198.269 51.075C200.972 51.075 204.031 50.7897 206.735 49.4345C209.225 48.0792 211.074 46.4387 212.71 44.2275C214.133 41.8023 212.284 42.8722 212.284 42.8722ZM209.225 20.9743C210.861 21.545 206.735 29.7478 206.735 29.7478C205.098 30.3184 203.462 30.8177 202.395 30.8177C202.964 29.7478 205.952 19.3338 209.225 20.9743Z" fill="#E12726"/>
<path fill-rule="evenodd" clip-rule="evenodd" d="M261.94 45.868C261.655 45.5827 261.157 45.5827 260.873 45.2973C259.236 44.2274 260.588 41.1603 260.873 39.5197L265.781 21.9729C266.066 20.9029 267.987 15.1253 260.303 16.1952C253.759 17.2652 249.134 21.4022 249.134 21.4022C249.704 19.7617 250.202 17.2652 249.134 16.7659C247.783 16.1952 239.886 18.6917 237.965 20.3323C237.396 20.3323 236.614 21.1169 237.396 21.9729C238.25 23.0428 238.463 23.8987 237.965 25.8246C236.898 29.1057 233.626 40.5897 232.772 42.8008C231.99 45.012 230.851 49.0778 232.772 50.433C234.124 51.5029 239.886 49.0778 240.669 48.5071C241.522 48.2218 242.305 47.7225 242.589 47.4372C243.657 46.3673 242.02 45.7966 243.657 40.019C243.657 39.7337 245.577 34.0274 246.929 29.1057C247.996 24.9687 251.838 23.1141 253.189 22.8288C255.395 22.5435 254.826 24.4694 254.541 25.8246C252.62 31.8162 250.415 40.875 249.632 43.0862C248.85 45.2973 247.427 49.6484 249.632 50.5043C251.553 51.8596 260.304 48.0078 261.086 47.5085C262.722 46.4386 262.722 45.868 261.94 45.868Z" fill="#E12726"/>
<path fill-rule="evenodd" clip-rule="evenodd" d="M228.646 45.8679C228.077 45.5826 227.863 45.5826 227.579 45.2973C225.943 44.2274 227.01 41.1602 227.579 39.5197L232.772 21.9728C233.057 20.047 234.124 17.6218 232.772 16.7658C231.136 16.1952 223.239 18.6917 221.318 20.3323C221.034 20.3323 220.251 21.1169 221.034 21.9728C221.816 23.0428 221.816 23.8987 221.318 25.8246C220.465 29.1057 216.694 40.8749 215.841 43.0861C215.058 45.2973 213.92 49.6484 216.41 50.5043C218.331 51.8595 226.512 48.2931 227.579 47.5085C229.428 46.7239 229.428 45.8679 228.646 45.8679Z" fill="#E12726"/>
<path fill-rule="evenodd" clip-rule="evenodd" d="M227.01 12.7715C227.579 13.8414 232.488 11.7015 234.906 10.275C235.191 9.98965 236.258 9.20503 236.543 8.34909C237.112 6.42321 237.325 5.6386 237.61 4.21203C237.894 3.6414 237.894 2.85678 237.041 2.57147C235.973 2.28615 229.429 3.1421 227.792 5.85259C227.294 6.99384 225.374 12.2008 227.01 12.7715Z" fill="#E12726"/>
<path fill-rule="evenodd" clip-rule="evenodd" d="M300.142 31.9589C299.36 28.9631 294.38 28.1072 292.53 29.7477C291.463 30.8177 290.894 33.0288 291.179 33.5995C295.803 32.2442 296.656 36.31 295.803 37.9505C294.166 40.447 293.597 41.2316 291.463 41.2316H277.022C276.737 40.9463 276.452 40.661 277.022 40.1617C277.875 39.0918 292.032 19.6191 292.601 18.8344C292.886 18.2638 293.668 16.9086 291.819 16.9086H275.954C274.318 16.9086 273.465 17.4792 272.113 18.8344C271.046 20.1897 269.623 24.3268 268.84 27.0372C268.84 27.0372 268.84 28.1072 270.477 26.7519C270.761 26.4666 271.259 25.3967 272.113 25.3967H281.646C284.634 25.3967 268.84 40.447 263.932 48.3645C263.149 49.7198 264.501 49.7198 265.283 49.7198H286.056C291.25 49.7198 290.396 50.5757 293.17 46.724C293.028 46.724 301.494 35.7393 300.142 31.9589Z" fill="#E12726"/>
<path fill-rule="evenodd" clip-rule="evenodd" d="M186.033 41.2317L191.795 19.0485C195.637 5.63867 197.771 5.06804 199.194 3.71279H190.159C186.886 3.71279 184.396 8.34916 183.899 11.345L180.057 25.3254H171.876C171.876 25.3254 176.784 7.56454 177.354 5.63867C177.638 4.78272 177.638 3.71279 176.002 3.71279C175.717 3.71279 158.501 3.14217 153.095 5.06804C150.605 5.85265 147.119 8.06384 145.981 11.345C145.198 13.2708 144.06 16.8373 146.55 23.3995C146.834 24.1841 147.332 24.7548 147.617 25.0401C148.399 25.6107 155.513 24.4694 155.229 24.4694C155.798 24.4694 156.083 24.1841 155.513 23.1142C154.944 21.7589 153.308 19.2624 153.023 16.8373C151.956 7.27923 158.786 5.92398 159.853 5.63867C161.489 5.35335 162.841 5.35335 164.477 5.63867C165.046 5.63867 166.398 5.92398 166.682 6.42328C167.252 7.49321 166.398 9.41909 165.829 11.6303C165.26 13.2708 160.636 30.2471 159.284 34.8834C158.43 38.4499 154.944 46.082 151.387 47.2233C150.605 47.5086 149.466 47.5086 148.399 47.2233C147.332 46.938 146.194 46.3673 145.411 45.868C143.206 43.6568 141.854 39.3058 141.57 36.0247C141.285 31.8876 142.139 28.8918 141.285 28.8918C139.862 28.8918 135.096 30.7464 133.175 32.1729C132.393 32.7436 132.322 32.8149 132.322 32.8149C132.25 32.8862 132.25 32.8862 132.25 32.9575C131.752 33.8135 131.752 36.8806 132.037 38.7352C132.82 42.8722 135.025 47.5086 138.297 49.7198C147.048 55.7114 162.343 44.7981 163.979 43.7282C166.469 41.517 168.105 38.5212 168.603 36.31C169.386 33.5995 170.809 28.8918 170.809 28.8918H178.99C178.99 28.8918 175.717 41.2317 174.864 44.2275C174.01 46.724 173.512 50.7897 175.646 50.5044C183.827 50.5044 187.1 47.5086 187.384 47.2233C187.669 46.938 187.669 46.3673 187.384 46.1534C186.886 45.868 184.966 43.9422 186.033 41.2317Z" fill="#E12726"/>
</svg>
