<svg width="299" height="74" viewBox="0 0 299 74" fill="none" xmlns="http://www.w3.org/2000/svg">
<path d="M138.037 1.37181C129.905 1.37181 125.203 5.70974 123.043 16.2994L114.149 60.0615L101.442 6.34767C100.553 2.77526 98.6468 1.37181 95.5972 1.37181H94.1995C91.15 1.37181 89.1169 2.77526 88.3545 6.34767L75.7751 60.0615L69.4219 28.8028C68.2783 23.1891 65.8641 21.2753 59.5108 21.2753H50.108C48.3291 21.2753 47.9479 21.0201 47.9479 19.2339V19.1063C47.0585 5.83733 37.7828 0.0959473 24.568 0.0959473C11.9886 0.0959473 1.69635 6.0925 1.69635 19.8718C1.69635 34.4166 12.1157 37.2235 22.0267 40.4132C30.9213 43.3477 38.4181 44.6235 38.4181 54.1925C38.4181 62.1028 33.3355 65.2925 24.3139 65.2925C15.1652 65.2925 10.7179 61.8477 9.4473 53.9373H0.93396C1.69635 67.3339 11.0991 73.2028 24.3139 73.2028C36.8933 73.2028 47.1855 67.2063 47.1855 53.427C47.1855 38.8822 36.7662 36.2028 26.9822 32.8856C18.0877 29.9511 10.5909 28.6753 10.5909 19.1063C10.5909 11.1959 15.6735 8.00629 24.6951 8.00629C33.8437 8.00629 38.5451 11.5787 39.6887 19.4891L39.8158 21.4028C39.8158 26.8891 42.6112 29.058 47.5667 29.058H57.859C60.4003 29.058 61.1627 29.5684 61.6709 31.7373L69.9301 67.9718C70.5655 70.7787 72.2173 72.0546 75.0127 72.0546H76.5375C79.3329 72.0546 80.9848 70.7787 81.7472 67.9718L95.089 14.3856L108.304 67.9718C108.939 70.6511 110.718 72.0546 113.513 72.0546H115.165C117.961 72.0546 119.612 70.7787 120.248 67.9718L131.684 17.5753C132.954 12.0891 134.86 9.53733 138.672 9.53733H140.578C143.882 9.53733 145.534 11.5787 145.534 14.6408V58.7856C145.534 67.0787 150.108 72.1822 158.494 72.1822H161.417C169.549 72.1822 174.25 67.8442 176.41 57.2546L185.305 13.4925L198.011 67.2063C198.901 70.7787 200.807 72.1822 203.856 72.1822H205.254C208.304 72.1822 210.337 70.7787 211.099 67.2063L223.679 13.4925L230.032 44.7511C231.175 50.3649 233.59 52.2787 239.943 52.2787H249.346C251.125 52.2787 251.506 52.5339 251.506 54.3201V54.4477C252.395 67.7166 261.671 73.3304 274.759 73.3304C287.338 73.3304 297.63 67.3339 297.63 53.5546C297.63 39.0097 287.211 36.3304 277.427 33.0132C268.532 30.0787 261.036 28.8028 261.036 19.2339C261.036 11.3235 266.118 8.13388 275.14 8.13388C284.288 8.13388 288.736 11.5787 290.006 19.4891H298.52C297.757 6.34767 288.355 0.478706 275.14 0.478706C262.56 0.478706 252.268 6.47526 252.268 20.2546C252.268 34.7994 262.687 37.4787 272.471 40.7959C281.366 43.7304 288.863 45.0063 288.863 54.5753C288.863 62.4856 283.78 65.6753 274.759 65.6753C265.61 65.6753 260.909 62.1028 259.765 54.1925L259.638 52.2787C259.638 46.7925 256.842 44.6235 251.887 44.6235H241.595C239.053 44.6235 238.291 44.1132 237.783 41.9442L229.524 5.70974C228.888 2.90284 227.236 1.62698 224.441 1.62698H222.916C220.121 1.62698 218.469 2.90284 217.707 5.70974L204.365 59.2959L191.15 5.70974C190.515 3.03043 188.736 1.62698 185.94 1.62698H184.288C181.493 1.62698 179.841 2.90284 179.206 5.70974L167.77 56.1063C166.499 61.5925 164.593 64.1442 160.781 64.1442H159.257C155.699 64.1442 154.047 61.9753 154.047 58.4028V14.1304C154.047 6.9856 149.473 1.4994 141.468 1.4994L138.037 1.37181Z" fill="#E96433"/>
</svg>
