<svg width="214" height="84" viewBox="0 0 214 84" fill="none" xmlns="http://www.w3.org/2000/svg">
<mask id="mask0_113_139" style="mask-type:luminance" maskUnits="userSpaceOnUse" x="3" y="3" width="208" height="78">
<path d="M164.636 10.0608C167.681 7.79304 172.825 6.14378 178.462 5.73147C190.723 4.90684 205.125 10.8442 207.758 25.5226C209.157 33.2328 202.985 42.5924 189.16 42.5924C184.634 42.5924 180.395 41.9327 176.281 40.4483C174.553 39.8711 173.071 40.4896 172.166 42.0151C171.384 43.0872 171.014 43.5819 169.574 43.8706C159.781 45.3961 150.893 46.9217 138.549 49.0657C138.302 49.107 137.85 49.107 137.685 49.107C137.438 49.107 137.233 49.1482 136.945 49.0657C136.163 48.9833 135.34 49.1894 134.64 49.6842C134.106 50.0553 133.653 50.3439 132.995 50.5088H132.953C133.036 50.5088 132.83 50.5501 132.748 50.5501H132.707C130.608 50.9624 128.674 51.3334 126.452 51.7458C123.161 52.3642 120.239 52.9415 116.783 53.6012C114.808 53.8898 112.627 53.3126 110.94 51.8282C109.994 51.1685 109.047 50.8799 108.06 51.1273C106.99 51.3747 106.249 52.0344 105.797 53.0239C105.673 53.3126 105.591 53.5187 105.426 53.7249C105.467 53.7249 105.385 53.7661 105.385 53.8073C104.48 55.3741 103.204 56.24 101.435 56.6523C101.435 56.6523 101.271 56.6523 101.271 56.6935C101.271 56.6935 101.188 56.6935 101.188 56.7348C100.406 56.8172 99.8716 56.9822 99.0898 57.1471C94.8517 58.0129 92.5475 58.6314 88.3094 59.5385C88.2271 59.5385 86.5812 59.7447 85.5525 59.621C83.4129 59.2911 82.5488 58.5077 81.9316 57.8068C81.2733 57.1059 80.5327 56.1575 79.0102 56.3637C77.4467 56.5286 76.5003 57.9305 75.8831 58.6726C59.6302 78.4637 15.7679 85.8029 7.99116 61.1465C-0.238159 35.0883 26.8363 23.461 39.0569 21.1108C50.3722 18.9668 58.8072 19.3791 66.6662 22.224C67.448 22.5539 68.4355 22.5951 69.2996 22.224C70.1226 21.8942 70.5752 21.1933 71.0278 20.3274C71.1512 19.9151 71.3158 19.544 71.5627 19.1729C72.5914 17.7298 73.7023 16.9877 75.6774 16.4929H75.7185C75.8008 16.4929 75.8831 16.4516 75.9654 16.4516C79.9155 15.7507 101.229 12.246 102.052 12.1223H102.093C109.788 11.0091 114.273 11.1328 118.264 12.3697C119.581 12.782 120.651 12.4522 121.72 11.4214C122.379 10.5556 123.325 10.1432 124.642 9.89584H124.683H124.724C124.724 9.89584 124.806 9.89584 124.765 9.89584C135.793 8.74136 144.721 7.8755 154.967 7.17457C156.407 7.13333 158.259 7.58688 159.987 9.40106C160.686 10.1845 161.591 10.5968 162.538 10.5968C163.279 10.7205 164.019 10.5143 164.636 10.0608ZM176.857 3.71113C170.973 4.24714 165.747 6.02009 162.25 8.53521C160.028 5.93763 156.942 5.07177 154.679 5.19546C144.968 5.7727 135.052 6.59733 124.395 7.66935H124.354C124.313 7.66935 124.272 7.66935 124.23 7.66935C122.214 7.95797 120.486 8.82383 119.252 10.1432C114.89 8.70013 109.335 8.61767 101.353 9.73092C101.394 9.73092 101.476 9.73092 101.517 9.73092C101.353 9.73092 78.8045 13.2768 75.019 13.9365C74.8956 13.9365 74.6898 13.9778 74.6898 13.9778C72.0565 14.555 69.9991 15.8744 68.4767 17.936C68.4355 17.9772 68.3944 18.0184 68.3944 18.0597C68.3532 18.1009 68.3121 18.1421 68.3121 18.2246C67.9418 18.8431 67.6126 19.4203 67.4069 20.0388C59.4244 16.9052 48.1503 16.0393 33.0495 19.9975C14.0809 25.0278 -1.34912 39.5412 4.57599 61.9712C12.2704 91.0806 61.9344 83.2878 78.8868 60.6518C80.7384 62.6721 83.3306 63.538 86.8281 63.1669C87.651 63.0844 94.8517 61.3115 99.1309 60.4456L101.353 59.9921C101.394 59.9921 101.435 59.9508 101.476 59.9508C104.069 59.4148 106.208 57.8892 107.607 55.5803C107.854 55.2092 108.06 54.8381 108.224 54.4258C110.611 56.4049 113.861 57.312 116.783 56.776L126.493 54.8794C126.493 54.8794 132.624 53.6836 132.748 53.6424C132.912 53.6012 133.036 53.5599 133.2 53.5187C133.241 53.5187 133.283 53.5187 133.283 53.5187C134.27 53.2301 135.175 52.7766 135.957 52.1993C136.615 52.2818 137.274 52.2818 137.973 52.1993C137.932 52.1993 137.932 52.1993 137.891 52.1993C137.932 52.1993 137.932 52.1993 137.973 52.1993H138.014C138.179 52.1993 138.344 52.1581 138.508 52.1581H138.467C150.153 50.0553 160.028 48.406 169.492 46.9217C171.755 46.5506 173.442 45.3961 174.553 43.5407C174.553 43.4995 174.594 43.4995 174.594 43.4582C178.626 44.9838 183.07 45.6847 187.678 45.6847C203.89 45.6847 211.749 36.6551 210.597 26.6358C208.746 10.5555 193.439 3.5462 180.19 3.5462C178.997 3.58744 177.927 3.62866 176.857 3.71113Z" fill="white"/>
</mask>
<g mask="url(#mask0_113_139)">
<path d="M-44.8823 43.0047L115.631 -102.666L255.118 51.6633L94.6048 197.334L-44.8823 43.0047Z" fill="url(#paint0_linear_113_139)"/>
</g>
<mask id="mask1_113_139" style="mask-type:luminance" maskUnits="userSpaceOnUse" x="124" y="11" width="45" height="35">
<path d="M155.502 11.8749C145.585 12.5346 135.751 13.318 125.3 14.4313C123.819 14.6787 124.354 15.9156 124.354 15.9156C127.851 25.069 131.266 34.2224 134.723 44.2004C134.723 44.2004 135.217 45.6435 136.78 45.4373C147.643 43.5407 157.724 41.9327 167.764 40.3659C168.216 40.4071 168.71 39.6237 168.34 38.7991C167.722 37.3147 167.187 35.9129 166.529 34.4285C165.706 33.0679 164.76 33.2741 164.76 33.2741C159.575 33.8925 154.514 34.7172 149.206 35.3769C147.807 35.5418 147.273 34.1399 147.273 34.1399C147.067 33.5627 146.861 32.9855 146.614 32.4494C146.244 30.8826 147.396 30.8826 147.396 30.8826C151.675 30.3054 155.708 29.8519 159.822 29.3158C160.727 29.1509 160.645 28.4088 160.439 27.8727C159.822 26.4709 159.287 25.069 158.67 23.7084C157.847 22.4302 156.901 22.5539 156.901 22.5539C152.868 22.8837 148.795 23.3785 144.639 23.8321C143.24 23.9145 142.746 22.6776 142.746 22.6776C142.499 22.1416 142.294 21.6056 142.088 21.0283C141.635 19.5852 142.911 19.5852 142.911 19.5852C148.178 19.0904 153.198 18.5957 158.259 18.1834C158.259 18.1834 159.246 18.1421 158.876 16.8639C158.259 15.5858 157.724 14.2664 157.148 12.9882C156.613 11.9574 155.749 11.8749 155.502 11.8749C155.502 11.8749 155.502 11.8749 155.502 11.8749Z" fill="white"/>
</mask>
<g mask="url(#mask1_113_139)">
<path d="M117.071 13.2768L166.817 2.92773L175.376 44.2829L125.629 54.5907L117.071 13.2768Z" fill="url(#paint1_linear_113_139)"/>
</g>
<mask id="mask2_113_139" style="mask-type:luminance" maskUnits="userSpaceOnUse" x="73" y="16" width="58" height="40">
<path d="M101.847 17.4824C92.8766 18.7606 84.1947 20.1625 75.3482 21.6468C73.5377 22.1003 73.9492 23.461 73.9492 23.461C76.5826 33.4802 79.216 43.5819 82.1374 54.467C82.1374 54.467 82.3842 56.1163 84.4416 55.9101C89.3792 54.8793 94.0699 53.7249 98.9663 52.7765C99.7893 52.5704 100.448 51.6221 100.16 50.6737C97.8142 42.7985 95.6746 35.583 93.4527 28.3263C93.1235 27.1306 93.823 26.0586 95.0163 25.8112C96.6621 25.5638 98.1434 25.3164 99.7893 25.0278C102.628 24.5742 105.426 24.2031 106.743 27.3367C107.031 27.914 106.99 28.8623 106.661 29.6045C105.591 31.3774 103.204 32.1608 98.884 32.9442C97.7319 33.1504 97.485 33.1916 97.4439 33.1916C96.8267 33.3978 97.2793 33.8925 97.2793 33.8925C102.34 38.8816 107.196 43.5819 112.339 48.8596C112.833 49.3956 113.779 49.7666 114.355 49.6842C119.704 48.6122 124.765 47.6226 129.991 46.6331C130.649 46.4681 130.608 45.8497 130.608 45.8497C130.69 45.19 130.114 44.7364 130.114 44.7364C125.629 40.9019 121.309 37.356 116.906 33.6039C116.947 33.5627 117.03 33.5215 117.112 33.4802C117.194 33.439 117.318 33.3565 117.4 33.3153C117.441 33.2741 117.565 33.2741 117.606 33.1916C122.091 30.7589 123.531 27.5017 122.584 24.1207C121.762 21.4406 120.075 19.5852 118.182 18.472C116.248 17.3175 113.738 16.7815 110.158 16.7815C107.895 16.8227 105.138 17.0289 101.847 17.4824Z" fill="white"/>
</mask>
<g mask="url(#mask2_113_139)">
<path d="M65.7198 18.4308L128.386 5.40161L138.549 54.5495L75.8831 67.5786L65.7198 18.4308Z" fill="url(#paint2_linear_113_139)"/>
</g>
<mask id="mask3_113_139" style="mask-type:luminance" maskUnits="userSpaceOnUse" x="8" y="25" width="67" height="48">
<path d="M32.5969 57.3533C30.4161 55.704 29.0171 53.4775 28.6468 50.8799C28.1942 47.6639 29.0994 44.5303 31.4859 41.8915C33.6667 39.4588 36.7115 37.7271 40.0855 36.985C44.1179 36.2428 48.0268 36.8613 51.0717 39.0053C53.2525 40.5721 54.6926 42.7161 55.1864 45.2312C55.7213 47.8701 55.2275 50.3027 53.8285 52.7354C51.8123 56.0339 48.2737 58.4253 44.0768 59.4149C42.8424 59.7035 41.6491 59.8272 40.4559 59.8272C37.5345 59.7859 34.8188 58.9613 32.5969 57.3533ZM38.3985 26.842C32.3911 27.9965 27.2889 29.8107 22.8863 32.367C18.3601 34.9234 14.8627 37.892 12.5585 41.3967C9.6782 45.726 8.52609 50.3027 9.061 55.6216C9.63705 60.9816 11.9413 65.1048 15.7679 68.0735C22.4748 73.0212 33.3375 74.2582 46.3398 71.2483C54.6514 69.3104 62.4282 65.847 67.9829 60.8992C73.2909 55.869 75.9654 49.643 74.1138 41.6853C72.8794 36.7376 70.4106 33.068 66.5428 30.3879C62.0578 27.3368 56.0093 25.7288 48.9732 25.7288C45.6403 25.7288 42.1017 26.0998 38.3985 26.842Z" fill="white"/>
</mask>
<g mask="url(#mask3_113_139)">
<path d="M-1.10223 27.7491L73.1674 12.2873L85.5937 72.2791L11.2829 87.7408L-1.10223 27.7491Z" fill="url(#paint3_linear_113_139)"/>
</g>
<mask id="mask4_113_139" style="mask-type:luminance" maskUnits="userSpaceOnUse" x="162" y="9" width="41" height="30">
<path d="M179.655 28.3263C177.968 27.0893 176.692 25.6462 175.911 23.8733C174.964 21.7705 175.046 19.8738 175.911 18.4307C176.816 17.1113 178.338 16.3279 180.272 16.2042C182.535 16.1218 185.086 16.9464 187.267 18.5544C188.872 19.7089 189.983 21.1932 190.806 22.76C191.505 24.4505 191.793 25.8936 191.382 27.213C190.847 29.0684 189.201 30.3054 186.938 30.5115C186.691 30.5528 186.444 30.5528 186.197 30.5528C184.058 30.5528 181.712 29.7694 179.655 28.3263ZM177.68 9.77213C170.685 9.93706 165.583 12.2048 163.69 16.3279C162.579 18.843 162.744 21.688 164.266 25.2751C165.788 28.7798 168.175 31.666 171.343 33.9337C176.775 37.6858 183.852 39.1702 190.929 38.2218C199.734 36.9849 204.096 29.9343 201.133 22.4714C199.611 19.3791 197.636 16.9464 194.961 14.8848C190.559 11.6275 185.004 9.7309 178.462 9.7309C178.174 9.7309 177.927 9.7309 177.68 9.77213Z" fill="white"/>
</mask>
<g mask="url(#mask4_113_139)">
<path d="M156.695 10.9679L202.368 1.48462L209.898 37.9745L164.266 47.4577L156.695 10.9679Z" fill="url(#paint4_linear_113_139)"/>
</g>
<path d="M136.122 42.0151C132.665 32.0371 129.209 22.8837 125.753 13.7303C125.753 13.7303 125.218 12.4934 126.699 12.246C137.15 11.1328 146.984 10.3494 156.901 9.68965C156.901 9.68965 157.971 9.56596 158.629 10.8029C159.246 12.0811 159.74 13.4005 160.357 14.6787C160.727 15.9568 159.74 15.9981 159.74 15.9981C154.679 16.4516 149.659 16.9052 144.392 17.3999C144.392 17.3999 143.076 17.3999 143.569 18.843C143.775 19.4203 143.981 19.9563 144.228 20.4923C144.228 20.4923 144.721 21.7292 146.12 21.6468C150.317 21.152 154.35 20.6984 158.382 20.3686C158.382 20.3686 159.328 20.2449 160.151 21.5231C160.769 22.8837 161.304 24.2856 161.921 25.6874C162.126 26.2647 162.168 27.0069 161.304 27.1305C157.189 27.6253 153.156 28.0789 148.877 28.6974C148.877 28.6974 147.684 28.7386 148.095 30.2641C148.342 30.8002 148.548 31.3774 148.754 31.9546C148.754 31.9546 149.248 33.3565 150.688 33.1916C155.996 32.5319 161.057 31.7072 166.241 31.0888C166.241 31.0888 167.187 30.8826 168.01 32.2433C168.669 33.7276 169.162 35.1294 169.821 36.6138C170.191 37.4384 169.697 38.2218 169.245 38.1806C159.164 39.7474 149.124 41.3554 138.261 43.252C136.616 43.4582 136.122 42.0151 136.122 42.0151Z" fill="white"/>
<path d="M99.6247 31.0475C99.6247 31.0475 99.1721 30.5528 99.7893 30.3466C99.7893 30.3466 100.077 30.3054 101.229 30.0992C105.55 29.3158 107.936 28.5324 109.006 26.7595C109.335 26.0173 109.335 25.069 109.088 24.4917C107.772 21.3994 104.974 21.7292 102.135 22.1828C100.489 22.4714 99.0075 22.7188 97.3617 22.9662C96.1273 23.2136 95.4689 24.2856 95.7981 25.4813C98.02 32.738 100.16 39.9535 102.505 47.8287C102.834 48.7771 102.176 49.7254 101.312 49.9315C96.4153 50.8386 91.7246 51.9931 86.787 53.0651C84.7296 53.2713 84.4828 51.622 84.4828 51.622C81.5613 40.7369 78.928 30.6352 76.2946 20.616C76.2946 20.616 75.8831 19.2966 77.6936 18.8018C86.5401 17.3175 95.222 15.9156 104.192 14.6374C112.709 13.4829 117.4 13.8128 120.568 15.6682C122.461 16.7814 124.148 18.6369 124.971 21.3169C125.959 24.6979 124.477 27.9552 119.992 30.3878C119.951 30.4291 119.869 30.4703 119.787 30.5115C119.704 30.5527 119.581 30.6352 119.499 30.6764C119.457 30.7177 119.375 30.7589 119.293 30.8001C123.695 34.5522 128.016 38.0981 132.501 41.9326C132.501 41.9326 133.077 42.3449 132.995 43.0459C132.995 43.0459 133.036 43.6643 132.377 43.8293C127.111 44.8188 122.05 45.7672 116.742 46.8392C116.166 46.9216 115.219 46.5506 114.726 46.0145C109.541 40.6957 104.686 36.0365 99.6247 31.0475Z" fill="white"/>
<path d="M76.3768 38.7166C78.2284 46.6331 75.595 52.9002 70.246 58.0129C64.6912 63.0432 56.9145 66.6303 48.6029 68.6506C35.6005 71.8667 24.7378 70.7534 18.0309 65.9294C14.2043 63.0019 11.9001 58.92 11.324 53.5599C10.7891 48.2411 11.9001 43.6644 14.8215 39.2939C17.1257 35.748 20.6232 32.6968 25.1493 30.0992C29.552 27.5017 34.6541 25.605 40.6616 24.3681C52.2238 21.9354 62.2224 23.1311 68.8058 27.5429C72.6736 30.1405 75.1424 33.8101 76.3768 38.7166ZM30.9098 48.5297C31.2801 51.1273 32.638 53.3538 34.8599 54.9618C37.987 57.1883 42.1017 57.848 46.3398 56.8585C50.5367 55.8277 54.0754 53.395 56.0915 50.0553C57.4905 47.6226 57.9843 45.19 57.4494 42.5511C56.9556 40.036 55.5155 37.9332 53.3347 36.4077C50.2899 34.2636 46.3809 33.7688 42.3486 34.5522C38.9745 35.3356 35.9297 37.1086 33.7489 39.5825C31.3624 42.1801 30.4572 45.3137 30.9098 48.5297Z" fill="white"/>
<path d="M202.779 21.0283C205.701 28.4912 201.38 35.5418 192.575 36.7787C185.539 37.7683 178.42 36.2427 172.989 32.4906C169.78 30.2229 167.434 27.3367 165.912 23.832C164.389 20.2449 164.225 17.3587 165.336 14.8848C167.229 10.8029 172.372 8.53518 179.326 8.32902C186.197 8.16409 192.04 10.102 196.566 13.4417C199.282 15.5033 201.298 17.9359 202.779 21.0283ZM177.598 22.4302C178.379 24.2031 179.614 25.605 181.342 26.8832C183.646 28.4912 186.279 29.3158 188.666 29.1097C190.929 28.9035 192.575 27.6666 193.11 25.8111C193.521 24.4505 193.233 23.0074 192.534 21.3581C191.711 19.7914 190.6 18.2658 188.995 17.1525C186.814 15.5858 184.304 14.7199 182 14.8023C180.025 14.926 178.544 15.7094 177.639 17.0288C176.733 18.4307 176.651 20.3274 177.598 22.4302Z" fill="white"/>
<path d="M167.969 32.2433C167.146 30.9239 166.2 31.0888 166.2 31.0888C161.015 31.7072 155.954 32.5319 150.646 33.1916C149.247 33.3565 148.713 31.9546 148.713 31.9546C148.507 31.3774 148.301 30.8002 148.054 30.2641C147.684 28.6973 148.836 28.6974 148.836 28.6974C153.115 28.1201 157.148 27.6666 161.262 27.1305C162.168 26.9656 162.085 26.2235 161.88 25.6874C161.262 24.2856 160.727 22.8837 160.11 21.5231C159.287 20.2449 158.341 20.3686 158.341 20.3686C154.309 20.6984 150.235 21.1932 146.079 21.6468C144.68 21.7292 144.186 20.4923 144.186 20.4923C143.94 19.9563 143.734 19.4203 143.528 18.843C143.075 17.3999 144.351 17.3999 144.351 17.3999C149.618 16.9052 154.638 16.4104 159.699 15.9981C159.699 15.9981 160.686 15.9568 160.316 14.6787C159.699 13.4005 159.164 12.0811 158.588 10.8029C157.971 9.56596 156.86 9.68965 156.86 9.68965C146.943 10.3494 137.109 11.1328 126.658 12.246C125.177 12.4934 125.712 13.7303 125.712 13.7303C129.209 22.8837 132.624 32.0371 136.081 42.0151C136.081 42.0151 136.574 43.4582 138.138 43.252C149.001 41.3554 159.082 39.7474 169.121 38.1806C169.574 38.2218 170.068 37.4384 169.697 36.6138C169.121 35.1294 168.586 33.7276 167.969 32.2433Z" fill="#8080A7"/>
<path d="M132.501 41.8914C128.016 38.0569 123.695 34.511 119.293 30.7589C119.334 30.7177 119.416 30.6765 119.499 30.6352C119.581 30.594 119.704 30.5116 119.787 30.4703C119.828 30.4291 119.951 30.4291 119.992 30.3466C124.477 27.914 125.917 24.6567 124.971 21.2757C124.148 18.5957 122.461 16.7402 120.568 15.627C117.4 13.7716 112.709 13.4417 104.192 14.5962C95.222 15.8744 86.5401 17.2763 77.6936 18.7606C75.8831 19.2141 76.2946 20.5748 76.2946 20.5748C78.928 30.594 81.5613 40.6957 84.4828 51.5808C84.4828 51.5808 84.7296 53.2301 86.787 53.0239C91.7246 51.9931 96.4153 50.8387 101.312 49.8903C102.135 49.6842 102.793 48.7359 102.505 47.7875C100.16 39.9123 98.02 32.6968 95.7981 25.4401C95.4689 24.2444 96.1684 23.1724 97.3617 22.925C99.0075 22.6776 100.489 22.4302 102.135 22.1416C104.974 21.688 107.731 21.3169 109.088 24.4505C109.376 25.0278 109.335 25.9761 109.006 26.7183C107.936 28.4912 105.55 29.2746 101.229 30.058C100.077 30.2642 99.8304 30.3054 99.7893 30.3054C99.1721 30.5116 99.6247 31.0063 99.6247 31.0063C104.686 35.9953 109.541 40.6957 114.684 45.9733C115.178 46.5094 116.125 46.8804 116.701 46.798C122.05 45.726 127.111 44.7364 132.336 43.7881C132.995 43.6232 132.953 43.0047 132.953 43.0047C133.077 42.3037 132.501 41.8914 132.501 41.8914Z" fill="#8080A7"/>
<path d="M68.8059 27.5016C62.1813 23.1311 52.2238 21.8941 40.6616 24.3268C34.6542 25.5637 29.552 27.4604 25.1493 30.058C20.6232 32.6556 17.1257 35.7067 14.8215 39.2526C11.9413 43.6231 10.7892 48.1998 11.3241 53.5187C11.9001 58.8788 14.2043 62.9607 18.031 65.8881C24.7379 70.7122 35.6006 71.8254 48.6029 68.6094C56.9145 66.5478 64.6912 63.0019 70.246 57.9717C75.5539 52.859 78.2285 46.5918 76.3769 38.6753C75.1425 33.81 72.6737 30.1404 68.8059 27.5016ZM56.0916 50.014C54.0754 53.3537 50.5368 55.7864 46.3398 56.8172C42.1017 57.8067 37.9459 57.147 34.8599 54.9205C32.6792 53.3125 31.2802 51.086 30.9098 48.4884C30.4572 45.3136 31.3625 42.1388 33.749 39.4587C35.9297 36.9849 38.9746 35.2531 42.3486 34.4285C46.381 33.6451 50.2899 34.1811 53.3348 36.2839C55.5155 37.8095 56.9557 39.9535 57.4494 42.4274C57.9843 45.1487 57.4906 47.5813 56.0916 50.014Z" fill="#8080A7"/>
<path d="M202.779 21.0283C205.701 28.4912 201.38 35.5418 192.575 36.7787C185.539 37.7683 178.42 36.2427 172.989 32.4906C169.78 30.2229 167.434 27.3367 165.912 23.832C164.389 20.2449 164.225 17.3587 165.336 14.8848C167.229 10.8029 172.372 8.53518 179.326 8.32902C186.197 8.16409 192.04 10.102 196.566 13.4417C199.282 15.5033 201.298 17.9359 202.779 21.0283ZM177.598 22.4302C178.379 24.2031 179.614 25.605 181.342 26.8832C183.646 28.4912 186.279 29.3158 188.666 29.1097C190.929 28.9035 192.575 27.6666 193.11 25.8111C193.521 24.4505 193.233 23.0074 192.534 21.3581C191.711 19.7914 190.6 18.2658 188.995 17.1525C186.814 15.5858 184.304 14.7199 182 14.8023C180.025 14.926 178.544 15.7094 177.639 17.0288C176.733 18.4307 176.651 20.3274 177.598 22.4302Z" fill="#8080A7"/>
<path d="M137.274 40.4483C133.859 30.4703 130.444 21.3169 126.987 12.1223C126.987 12.1223 126.452 10.8854 127.934 10.638C138.385 9.56595 148.219 8.82378 158.094 8.20531C158.094 8.20531 159.164 8.12286 159.822 9.31857C160.439 10.5967 160.933 11.9161 161.55 13.1943C161.921 14.4725 160.933 14.5137 160.933 14.5137C155.872 14.926 150.852 15.3796 145.585 15.8744C145.585 15.8744 144.269 15.8744 144.763 17.3175C144.968 17.8947 145.174 18.4307 145.421 18.9667C145.421 18.9667 145.915 20.2037 147.314 20.1212C151.511 19.6677 155.543 19.2141 159.575 18.8843C159.575 18.8843 160.522 18.8018 161.345 20.0387C161.962 21.3994 162.497 22.8013 163.114 24.2031C163.32 24.7804 163.361 25.5225 162.497 25.6462C158.382 26.141 154.391 26.5533 150.112 27.1305C150.112 27.1305 148.918 27.1718 149.33 28.6973C149.577 29.2334 149.782 29.8518 149.988 30.3878C149.988 30.3878 150.482 31.7897 151.881 31.6248C157.189 30.9651 162.25 30.1817 167.393 29.5632C167.393 29.5632 168.34 29.3983 169.121 30.7177C169.78 32.202 170.273 33.6039 170.932 35.0882C171.302 35.9129 170.808 36.6962 170.356 36.655C160.316 38.1806 150.276 39.7474 139.413 41.6028C137.768 41.8914 137.274 40.4483 137.274 40.4483Z" fill="white"/>
<path d="M100.859 29.3158C100.859 29.3158 100.406 28.8211 101.024 28.6149C101.024 28.6149 101.312 28.5737 102.464 28.3675C106.784 27.5841 109.13 26.8007 110.24 25.069C110.57 24.3268 110.57 23.3785 110.323 22.8013C109.006 19.6677 106.208 20.0388 103.41 20.4923C101.764 20.7809 100.283 20.9871 98.6371 21.2345C97.4027 21.4819 96.7444 22.5539 97.0736 23.7496C99.2543 31.0063 101.394 38.2631 103.739 46.1383C104.069 47.0866 103.41 48.0349 102.546 48.2411C97.6496 49.1482 92.9589 50.2614 88.0213 51.2922C85.964 51.4984 85.7171 49.8491 85.7171 49.8491C82.8368 38.964 80.2035 28.8211 77.6112 18.8018C77.6112 18.8018 77.1998 17.4824 79.0102 16.9876C87.8567 15.5445 96.5387 14.1839 105.509 12.9057C114.026 11.7512 118.717 12.1223 121.844 13.9777C123.695 15.091 125.424 16.9876 126.205 19.6265C127.193 23.0074 125.712 26.2647 121.227 28.6974C121.185 28.7386 121.103 28.7798 121.021 28.8211C120.939 28.8623 120.815 28.9035 120.733 28.986C120.692 29.0272 120.609 29.0685 120.527 29.1097C124.93 32.903 129.25 36.4489 133.694 40.3246C133.694 40.3246 134.27 40.737 134.147 41.4379C134.147 41.4379 134.188 42.0564 133.529 42.2213C128.304 43.1696 123.243 44.1179 117.894 45.19C117.318 45.2724 116.371 44.9013 115.878 44.3653C110.734 39.0465 105.879 34.3461 100.859 29.3158Z" fill="white"/>
<path d="M77.6112 37.1086C79.4628 45.0662 76.7883 51.2922 71.4392 56.4049C65.8845 61.3939 58.1077 64.9398 49.7961 66.9601C36.8349 70.0937 25.9722 68.9392 19.2653 64.0739C15.4387 61.1053 13.1756 57.0233 12.5996 51.6633C12.0647 46.3444 13.2168 41.7677 16.097 37.3972C18.4012 33.8513 21.8987 30.8414 26.4248 28.2438C30.8275 25.6462 35.9297 23.7908 41.896 22.5539C53.4582 20.1624 63.4157 21.3994 69.9991 25.8111C73.9492 28.5324 76.3768 32.202 77.6112 37.1086ZM32.1854 46.7567C32.5145 49.3543 33.9135 51.5808 36.0943 53.1888C39.1803 55.4153 43.295 56.1163 47.5742 55.1267C51.7712 54.1371 55.3098 51.6633 57.3259 48.3647C58.7249 45.9321 59.2187 43.4994 58.6838 40.8606C58.2312 38.3455 56.7499 36.2015 54.5691 34.6759C51.5243 32.5319 47.6565 31.9959 43.583 32.7793C40.209 33.5627 37.1641 35.2944 34.9833 37.7683C32.6791 40.4071 31.7328 43.5407 32.1854 46.7567Z" fill="white"/>
<path d="M203.89 19.9151C206.812 27.378 202.491 34.4286 193.686 35.6655C186.65 36.6551 179.531 35.1295 174.1 31.3774C170.891 29.1097 168.545 26.2235 167.023 22.7188C165.5 19.1317 165.336 16.2455 166.447 13.7716C168.34 9.68968 173.483 7.42196 180.437 7.2158C187.308 7.05087 193.151 8.98875 197.677 12.3285C200.393 14.3901 202.368 16.8227 203.89 19.9151ZM178.667 21.317C179.449 23.0899 180.684 24.4918 182.412 25.7699C184.716 27.378 187.349 28.2026 189.736 27.9964C191.999 27.7903 193.645 26.5533 194.18 24.6979C194.591 23.3373 194.303 21.8942 193.604 20.2449C192.781 18.6781 191.67 17.1526 190.065 16.0393C187.884 14.4313 185.374 13.6067 183.07 13.6891C181.095 13.8128 179.614 14.5962 178.708 15.9156C177.844 17.3175 177.721 19.2142 178.667 21.317Z" fill="white"/>
<path d="M210.515 26.677C208.499 9.23611 190.723 2.47415 176.857 3.71109C170.973 4.2471 165.747 6.02006 162.25 8.53518C160.028 5.9376 156.942 5.07173 154.679 5.19543C144.968 5.77267 135.052 6.5973 124.395 7.66931H124.354C124.313 7.66931 124.272 7.66931 124.23 7.66931C122.214 7.95793 120.486 8.82379 119.252 10.1432C114.89 8.7001 109.335 8.61764 101.353 9.73089C101.394 9.73089 101.476 9.73089 101.517 9.73089C101.353 9.73089 78.8045 13.2768 75.019 13.9365C74.8956 13.9365 74.6898 13.9777 74.6898 13.9777C72.0565 14.555 69.9991 15.8744 68.4767 17.9359C68.4356 17.9772 68.3944 18.0184 68.3944 18.0596C68.3533 18.1009 68.3121 18.1421 68.3121 18.2246C67.9418 18.843 67.6126 19.4203 67.4069 20.0387C59.4244 16.9052 48.1503 16.0393 33.0495 19.9975C14.0809 25.0277 -1.34912 39.5412 4.57599 61.9711C12.2704 91.0805 61.9344 83.2878 78.8868 60.6517C80.7384 62.6721 83.3306 63.5379 86.8281 63.1668C87.651 63.0844 94.8517 61.3114 99.1309 60.4456L101.353 59.992C101.394 59.992 101.435 59.9508 101.476 59.9508C104.069 59.4148 106.208 57.8892 107.607 55.5802C107.854 55.2092 108.06 54.8381 108.224 54.4258C110.611 56.4049 113.861 57.312 116.783 56.776L126.493 54.8793C126.493 54.8793 132.624 53.6836 132.748 53.6424C132.912 53.6011 133.036 53.5599 133.2 53.5187C133.241 53.5187 133.283 53.5187 133.283 53.5187C134.27 53.2301 135.175 52.7765 135.957 52.1993C136.616 52.2817 137.274 52.2817 137.973 52.1993H138.014C138.179 52.1993 138.344 52.158 138.508 52.158H138.467C150.153 50.0552 160.028 48.406 169.492 46.9216C171.755 46.5506 173.442 45.3961 174.553 43.5407C174.553 43.4994 174.594 43.4994 174.594 43.4582C178.626 44.9838 183.07 45.6847 187.678 45.6847C203.808 45.7259 211.667 36.6963 210.515 26.677Z" fill="white"/>
<path d="M137.973 52.1993C137.274 52.2817 136.616 52.2817 135.957 52.1993C135.175 52.7765 134.27 53.2301 133.283 53.5187C133.283 53.5187 133.241 53.5187 133.2 53.5187C133.036 53.5599 132.912 53.6011 132.748 53.6424C132.624 53.6836 126.493 54.8793 126.493 54.8793L116.783 56.776C113.861 57.312 110.611 56.4049 108.224 54.4258C108.06 54.8381 107.854 55.2092 107.607 55.5802C106.208 57.8892 104.069 59.4148 101.476 59.9508C101.435 59.9508 101.394 59.992 101.353 59.992L99.1309 60.4456C94.8517 61.3114 87.651 63.0844 86.8281 63.1668C83.3306 63.5379 80.7384 62.6721 78.8868 60.6517C61.9344 83.2878 12.2704 91.0805 4.57599 61.9711C-1.34912 39.5412 14.0809 25.0277 33.0495 19.9975C48.1503 16.0393 59.4244 16.9052 67.4069 20.0387C67.6126 19.4203 67.9418 18.843 68.3121 18.2246C68.3121 18.1421 68.3533 18.1009 68.3944 18.0596C68.3944 18.0184 68.4356 17.9772 68.4767 17.9359C69.9991 15.8744 72.0565 14.555 74.6898 13.9777C74.6898 13.9777 74.8956 13.9365 75.019 13.9365C78.8045 13.2768 101.353 9.73089 101.517 9.73089C101.476 9.73089 101.394 9.73089 101.353 9.73089C109.335 8.61764 114.89 8.7001 119.252 10.1432C120.486 8.82379 122.214 7.95793 124.23 7.66931C124.272 7.66931 124.313 7.66931 124.354 7.66931H124.395C135.052 6.5973 144.968 5.77267 154.679 5.19543C156.942 5.07173 160.028 5.9376 162.25 8.53518C165.747 6.02006 170.973 4.2471 176.857 3.71109C190.723 2.47415 208.499 9.23611 210.515 26.677C211.667 36.6963 203.808 45.7259 187.678 45.6847C183.07 45.6847 178.626 44.9838 174.594 43.4582C174.594 43.4994 174.553 43.4994 174.553 43.5407C173.442 45.3961 171.755 46.5506 169.492 46.9216C160.028 48.406 150.153 50.0552 138.467 52.158H138.508C138.344 52.158 138.179 52.1993 138.014 52.1993H137.973ZM137.973 52.1993C137.932 52.1993 137.932 52.1993 137.891 52.1993" stroke="white" stroke-width="5.589" stroke-linecap="round" stroke-linejoin="round"/>
<mask id="mask5_113_139" style="mask-type:luminance" maskUnits="userSpaceOnUse" x="3" y="3" width="208" height="78">
<path d="M177.268 3.8348C171.343 4.16465 165.747 5.97885 162.25 8.5352C160.028 5.93761 156.942 5.07175 154.679 5.19545C144.968 5.77269 135.052 6.59732 124.395 7.66933H124.354C124.313 7.66933 124.272 7.66933 124.23 7.66933C122.214 7.95795 120.486 8.82381 119.252 10.1432C114.89 8.70012 109.335 8.61766 101.353 9.73091C101.394 9.73091 101.476 9.73091 101.517 9.73091C101.353 9.73091 78.8045 13.2768 75.019 13.9365C74.8956 13.9365 74.6899 13.9777 74.6899 13.9777C72.0565 14.555 69.9991 15.8744 68.4767 17.936C68.4356 17.9772 68.3944 18.0184 68.3944 18.0596C68.3533 18.1009 68.3121 18.1421 68.3121 18.2246C67.9418 18.8431 67.6126 19.4203 67.4069 20.0388C59.4245 16.9052 48.1503 16.2455 33.0495 20.2449C14.0809 25.2752 -1.01993 39.5412 4.90518 62.0124C12.5996 91.1218 61.9344 83.329 78.8868 60.693C80.7384 62.7133 83.3306 63.5792 86.8281 63.2081C87.651 63.1256 94.8517 61.3527 99.1309 60.4868L101.353 60.0333C101.394 60.0333 101.435 59.992 101.476 59.992C104.069 59.456 106.208 57.9305 107.607 55.6215C107.854 55.2504 108.06 54.8793 108.224 54.467C110.611 56.4461 113.861 57.3532 116.783 56.8172L126.493 54.9206C126.493 54.9206 132.624 53.7249 132.748 53.6836C132.912 53.6424 133.036 53.6012 133.2 53.5599C133.241 53.5599 133.283 53.5599 133.283 53.5599C134.27 53.2713 135.175 52.8178 135.957 52.2405C136.616 52.323 137.274 52.323 137.973 52.2405C137.932 52.2405 137.932 52.2405 137.891 52.2405C137.932 52.2405 137.932 52.2405 137.973 52.2405H138.014C138.179 52.2405 138.344 52.1993 138.508 52.1993H138.467C150.153 50.0965 160.028 48.4472 169.492 46.9629C171.755 46.5918 173.442 45.4373 174.553 43.5819C174.553 43.5407 174.594 43.5407 174.594 43.4995C178.626 45.025 183.07 45.726 187.678 45.726C203.89 45.726 211.626 36.7787 210.515 26.7595C208.951 12.7408 196.319 3.79358 179.819 3.79358C178.914 3.79358 178.091 3.79357 177.268 3.8348Z" fill="white"/>
</mask>
<g mask="url(#mask5_113_139)">
<path d="M-44.4296 43.1284L115.713 -102.254L254.912 51.7457L94.7282 197.128L-44.4296 43.1284Z" fill="url(#paint5_linear_113_139)"/>
</g>
<mask id="mask6_113_139" style="mask-type:luminance" maskUnits="userSpaceOnUse" x="3" y="3" width="208" height="78">
<path d="M164.636 10.0608C167.681 7.79304 172.825 6.14378 178.462 5.73147C190.723 4.90684 205.125 10.8442 207.758 25.5226C209.157 33.2328 202.985 42.5924 189.16 42.5924C184.634 42.5924 180.395 41.9327 176.281 40.4483C174.553 39.8711 173.071 40.4896 172.166 42.0151C171.384 43.0872 171.014 43.5819 169.574 43.8706C159.781 45.3961 150.893 46.9217 138.549 49.0657C138.302 49.107 137.85 49.107 137.685 49.107C137.438 49.107 137.233 49.1482 136.945 49.0657C136.163 48.9833 135.34 49.1894 134.64 49.6842C134.106 50.0553 133.653 50.3439 132.995 50.5088H132.953C133.036 50.5088 132.83 50.5501 132.748 50.5501H132.707C130.608 50.9624 128.674 51.3334 126.452 51.7458C123.161 52.3642 120.239 52.9415 116.783 53.6012C114.808 53.8898 112.627 53.3126 110.94 51.8282C109.994 51.1685 109.047 50.8799 108.06 51.1273C106.99 51.3747 106.249 52.0344 105.797 53.0239C105.673 53.3126 105.591 53.5187 105.426 53.7249C105.467 53.7249 105.385 53.7661 105.385 53.8073C104.48 55.3741 103.204 56.24 101.435 56.6523C101.435 56.6523 101.271 56.6523 101.271 56.6935C101.271 56.6935 101.188 56.6935 101.188 56.7348C100.406 56.8172 99.8716 56.9822 99.0898 57.1471C94.8517 58.0129 92.5475 58.6314 88.3094 59.5385C88.2271 59.5385 86.5812 59.7447 85.5525 59.621C83.4129 59.2911 82.5488 58.5077 81.9316 57.8068C81.2733 57.1059 80.5327 56.1575 79.0102 56.3637C77.4467 56.5286 76.5003 57.9305 75.8831 58.6726C59.6302 78.4637 15.7679 85.8029 7.99116 61.1465C-0.238159 35.0883 26.8363 23.461 39.0569 21.1108C50.3722 18.9668 58.8072 19.3791 66.6662 22.224C67.448 22.5539 68.4355 22.5951 69.2996 22.224C70.1226 21.8942 70.5752 21.1933 71.0278 20.3274C71.1512 19.9151 71.3158 19.544 71.5627 19.1729C72.5914 17.7298 73.7023 16.9877 75.6774 16.4929H75.7185C75.8008 16.4929 75.8831 16.4516 75.9654 16.4516C79.9155 15.7507 101.229 12.246 102.052 12.1223H102.093C109.788 11.0091 114.273 11.1328 118.264 12.3697C119.581 12.782 120.651 12.4522 121.72 11.4214C122.379 10.5556 123.325 10.1432 124.642 9.89584H124.683H124.724C124.724 9.89584 124.806 9.89584 124.765 9.89584C135.793 8.74136 144.721 7.8755 154.967 7.17457C156.407 7.13333 158.259 7.58688 159.987 9.40106C160.686 10.1845 161.591 10.5968 162.538 10.5968C163.279 10.7205 164.019 10.5143 164.636 10.0608ZM176.857 3.71113C170.973 4.24714 165.747 6.02009 162.25 8.53521C160.028 5.93763 156.942 5.07177 154.679 5.19546C144.968 5.7727 135.052 6.59733 124.395 7.66935H124.354C124.313 7.66935 124.272 7.66935 124.23 7.66935C122.214 7.95797 120.486 8.82383 119.252 10.1432C114.89 8.70013 109.335 8.61767 101.353 9.73092C101.394 9.73092 101.476 9.73092 101.517 9.73092C101.353 9.73092 78.8045 13.2768 75.019 13.9365C74.8956 13.9365 74.6898 13.9778 74.6898 13.9778C72.0565 14.555 69.9991 15.8744 68.4767 17.936C68.4355 17.9772 68.3944 18.0184 68.3944 18.0597C68.3532 18.1009 68.3121 18.1421 68.3121 18.2246C67.9418 18.8431 67.6126 19.4203 67.4069 20.0388C59.4244 16.9052 48.1503 16.0393 33.0495 19.9975C14.0809 25.0278 -1.34912 39.5412 4.57599 61.9712C12.2704 91.0806 61.9344 83.2878 78.8868 60.6518C80.7384 62.6721 83.3306 63.538 86.8281 63.1669C87.651 63.0844 94.8517 61.3115 99.1309 60.4456L101.353 59.9921C101.394 59.9921 101.435 59.9508 101.476 59.9508C104.069 59.4148 106.208 57.8892 107.607 55.5803C107.854 55.2092 108.06 54.8381 108.224 54.4258C110.611 56.4049 113.861 57.312 116.783 56.776L126.493 54.8794C126.493 54.8794 132.624 53.6836 132.748 53.6424C132.912 53.6012 133.036 53.5599 133.2 53.5187C133.241 53.5187 133.283 53.5187 133.283 53.5187C134.27 53.2301 135.175 52.7766 135.957 52.1993C136.615 52.2818 137.274 52.2818 137.973 52.1993C137.932 52.1993 137.932 52.1993 137.891 52.1993C137.932 52.1993 137.932 52.1993 137.973 52.1993H138.014C138.179 52.1993 138.344 52.1581 138.508 52.1581H138.467C150.153 50.0553 160.028 48.406 169.492 46.9217C171.755 46.5506 173.442 45.3961 174.553 43.5407C174.553 43.4995 174.594 43.4995 174.594 43.4582C178.626 44.9838 183.07 45.6847 187.678 45.6847C203.89 45.6847 211.749 36.6551 210.597 26.6358C208.746 10.5555 193.439 3.5462 180.19 3.5462C178.997 3.58744 177.927 3.62866 176.857 3.71113Z" fill="white"/>
</mask>
<g mask="url(#mask6_113_139)">
<path d="M-44.8823 43.0047L115.631 -102.666L255.118 51.6633L94.6048 197.334L-44.8823 43.0047Z" fill="url(#paint6_linear_113_139)"/>
</g>
<mask id="mask7_113_139" style="mask-type:luminance" maskUnits="userSpaceOnUse" x="124" y="11" width="45" height="35">
<path d="M155.502 11.8749C145.585 12.5346 135.751 13.318 125.3 14.4313C123.819 14.6787 124.354 15.9156 124.354 15.9156C127.851 25.069 131.266 34.2224 134.723 44.2004C134.723 44.2004 135.217 45.6435 136.78 45.4373C147.643 43.5407 157.724 41.9327 167.764 40.3659C168.216 40.4071 168.71 39.6237 168.34 38.7991C167.722 37.3147 167.187 35.9129 166.529 34.4285C165.706 33.0679 164.76 33.2741 164.76 33.2741C159.575 33.8925 154.514 34.7172 149.206 35.3769C147.807 35.5418 147.273 34.1399 147.273 34.1399C147.067 33.5627 146.861 32.9855 146.614 32.4494C146.244 30.8826 147.396 30.8826 147.396 30.8826C151.675 30.3054 155.708 29.8519 159.822 29.3158C160.727 29.1509 160.645 28.4088 160.439 27.8727C159.822 26.4709 159.287 25.069 158.67 23.7084C157.847 22.4302 156.901 22.5539 156.901 22.5539C152.868 22.8837 148.795 23.3785 144.639 23.8321C143.24 23.9145 142.746 22.6776 142.746 22.6776C142.499 22.1416 142.294 21.6056 142.088 21.0283C141.635 19.5852 142.911 19.5852 142.911 19.5852C148.178 19.0904 153.198 18.5957 158.259 18.1834C158.259 18.1834 159.246 18.1421 158.876 16.8639C158.259 15.5858 157.724 14.2664 157.148 12.9882C156.613 11.9574 155.749 11.8749 155.502 11.8749C155.502 11.8749 155.502 11.8749 155.502 11.8749Z" fill="white"/>
</mask>
<g mask="url(#mask7_113_139)">
<path d="M117.071 13.2768L166.817 2.92773L175.376 44.2829L125.629 54.5907L117.071 13.2768Z" fill="url(#paint7_linear_113_139)"/>
</g>
<mask id="mask8_113_139" style="mask-type:luminance" maskUnits="userSpaceOnUse" x="73" y="16" width="58" height="40">
<path d="M101.847 17.4824C92.8766 18.7606 84.1947 20.1625 75.3482 21.6468C73.5377 22.1003 73.9492 23.461 73.9492 23.461C76.5826 33.4802 79.216 43.5819 82.1374 54.467C82.1374 54.467 82.3842 56.1163 84.4416 55.9101C89.3792 54.8793 94.0699 53.7249 98.9663 52.7765C99.7893 52.5704 100.448 51.6221 100.16 50.6737C97.8142 42.7985 95.6746 35.583 93.4527 28.3263C93.1235 27.1306 93.823 26.0586 95.0163 25.8112C96.6621 25.5638 98.1434 25.3164 99.7893 25.0278C102.628 24.5742 105.426 24.2031 106.743 27.3367C107.031 27.914 106.99 28.8623 106.661 29.6045C105.591 31.3774 103.204 32.1608 98.884 32.9442C97.7319 33.1504 97.485 33.1916 97.4439 33.1916C96.8267 33.3978 97.2793 33.8925 97.2793 33.8925C102.34 38.8816 107.196 43.5819 112.339 48.8596C112.833 49.3956 113.779 49.7666 114.355 49.6842C119.704 48.6122 124.765 47.6226 129.991 46.6331C130.649 46.4681 130.608 45.8497 130.608 45.8497C130.69 45.19 130.114 44.7364 130.114 44.7364C125.629 40.9019 121.309 37.356 116.906 33.6039C116.947 33.5627 117.03 33.5215 117.112 33.4802C117.194 33.439 117.318 33.3565 117.4 33.3153C117.441 33.2741 117.565 33.2741 117.606 33.1916C122.091 30.7589 123.531 27.5017 122.584 24.1207C121.762 21.4406 120.075 19.5852 118.182 18.472C116.248 17.3175 113.738 16.7815 110.158 16.7815C107.895 16.8227 105.138 17.0289 101.847 17.4824Z" fill="white"/>
</mask>
<g mask="url(#mask8_113_139)">
<path d="M65.7198 18.4308L128.386 5.40161L138.591 54.5495L75.8831 67.5786L65.7198 18.4308Z" fill="url(#paint8_linear_113_139)"/>
</g>
<mask id="mask9_113_139" style="mask-type:luminance" maskUnits="userSpaceOnUse" x="8" y="25" width="67" height="48">
<path d="M32.5969 57.3533C30.4161 55.704 29.0171 53.4775 28.6468 50.8799C28.1942 47.6639 29.0994 44.5303 31.4859 41.8915C33.6667 39.4588 36.7115 37.7271 40.0855 36.985C44.1179 36.2428 48.0268 36.8613 51.0717 39.0053C53.2525 40.5721 54.6926 42.7161 55.1864 45.2312C55.7213 47.8701 55.2275 50.3027 53.8285 52.7354C51.8123 56.0339 48.2737 58.4253 44.0768 59.4149C42.8424 59.7035 41.6491 59.8272 40.4559 59.8272C37.5345 59.7859 34.8188 58.9613 32.5969 57.3533ZM38.3985 26.842C32.3911 27.9965 27.2889 29.8107 22.8863 32.367C18.3601 34.9234 14.8627 37.892 12.5585 41.3967C9.6782 45.726 8.52609 50.3027 9.061 55.6216C9.63705 60.9816 11.9413 65.1048 15.7679 68.0735C22.4748 73.0212 33.3375 74.2582 46.3398 71.2483C54.6514 69.3104 62.4282 65.847 67.9829 60.8992C73.2909 55.869 75.9654 49.643 74.1138 41.6853C72.8794 36.7376 70.4106 33.068 66.5428 30.3879C62.0578 27.3368 56.0093 25.7288 48.9732 25.7288C45.6403 25.7288 42.1017 26.0998 38.3985 26.842Z" fill="white"/>
</mask>
<g mask="url(#mask9_113_139)">
<path d="M-1.10223 27.7491L73.1674 12.2873L85.5937 72.2791L11.2829 87.7408L-1.10223 27.7491Z" fill="url(#paint9_linear_113_139)"/>
</g>
<mask id="mask10_113_139" style="mask-type:luminance" maskUnits="userSpaceOnUse" x="162" y="9" width="41" height="30">
<path d="M179.655 28.3263C177.968 27.0893 176.692 25.6462 175.911 23.8733C174.964 21.7705 175.046 19.8738 175.911 18.4307C176.816 17.1113 178.338 16.3279 180.272 16.2042C182.535 16.1218 185.086 16.9464 187.267 18.5544C188.872 19.7089 189.983 21.1932 190.806 22.76C191.505 24.4505 191.793 25.8936 191.382 27.213C190.847 29.0684 189.201 30.3054 186.938 30.5115C186.691 30.5528 186.444 30.5528 186.197 30.5528C184.058 30.5528 181.712 29.7694 179.655 28.3263ZM177.68 9.77213C170.685 9.93706 165.583 12.2048 163.69 16.3279C162.579 18.843 162.744 21.688 164.266 25.2751C165.788 28.7798 168.175 31.666 171.343 33.9337C176.775 37.6858 183.852 39.1702 190.929 38.2218C199.734 36.9849 204.096 29.9343 201.133 22.4714C199.611 19.3791 197.636 16.9464 194.961 14.8848C190.559 11.6275 185.004 9.7309 178.462 9.7309C178.174 9.7309 177.927 9.7309 177.68 9.77213Z" fill="white"/>
</mask>
<g mask="url(#mask10_113_139)">
<path d="M156.695 10.9679L202.368 1.48462L209.898 37.9745L164.266 47.4577L156.695 10.9679Z" fill="url(#paint10_linear_113_139)"/>
</g>
<path d="M136.122 42.0151C132.665 32.0371 129.209 22.8837 125.753 13.7303C125.753 13.7303 125.218 12.4934 126.699 12.246C137.15 11.1328 146.984 10.3494 156.901 9.68965C156.901 9.68965 157.971 9.56596 158.629 10.8029C159.246 12.0811 159.74 13.4005 160.357 14.6787C160.727 15.9568 159.74 15.9981 159.74 15.9981C154.679 16.4516 149.659 16.9052 144.392 17.3999C144.392 17.3999 143.075 17.3999 143.569 18.843C143.775 19.4203 143.981 19.9563 144.228 20.4923C144.228 20.4923 144.721 21.7292 146.12 21.6468C150.317 21.152 154.35 20.6984 158.382 20.3686C158.382 20.3686 159.328 20.2449 160.151 21.5231C160.769 22.8837 161.303 24.2856 161.921 25.6874C162.126 26.2647 162.168 27.0069 161.303 27.1305C157.189 27.6253 153.156 28.0789 148.877 28.6974C148.877 28.6974 147.684 28.7386 148.095 30.2641C148.342 30.8002 148.548 31.3774 148.754 31.9546C148.754 31.9546 149.247 33.3565 150.688 33.1916C155.996 32.5319 161.057 31.7072 166.241 31.0888C166.241 31.0888 167.187 30.8826 168.01 32.2433C168.669 33.7276 169.162 35.1294 169.821 36.6138C170.191 37.4384 169.697 38.2218 169.245 38.1806C159.164 39.7474 149.124 41.3554 138.261 43.252C136.615 43.4582 136.122 42.0151 136.122 42.0151Z" fill="white"/>
<path d="M99.6247 31.0476C99.6247 31.0476 99.172 30.5528 99.7892 30.3467C99.7892 30.3467 100.077 30.3054 101.229 30.0993C105.55 29.3159 107.936 28.5325 109.006 26.7595C109.335 26.0173 109.335 25.069 109.088 24.4918C107.772 21.3994 104.974 21.7293 102.135 22.1828C100.489 22.4714 99.0075 22.7188 97.3616 22.9662C96.1272 23.2136 95.4688 24.2856 95.798 25.4813C98.0199 32.7381 100.16 39.9536 102.505 47.8288C102.834 48.7771 102.176 49.7254 101.312 49.9316C96.4152 50.8387 91.7245 51.9932 86.7869 53.0652C84.7296 53.2713 84.4827 51.6221 84.4827 51.6221C81.5613 40.737 78.9279 30.6353 76.2945 20.616C76.2945 20.616 75.883 19.2966 77.6935 18.8019C86.54 17.3175 95.222 15.9156 104.192 14.6375C112.709 13.483 117.4 13.8128 120.568 15.6683C122.461 16.7815 124.148 18.6369 124.971 21.317C125.958 24.698 124.477 27.9552 119.992 30.3879C119.951 30.4291 119.869 30.4703 119.786 30.5116C119.704 30.5528 119.581 30.6353 119.498 30.6765C119.457 30.7177 119.375 30.759 119.293 30.8002C123.695 34.5523 128.016 38.0982 132.501 41.9327C132.501 41.9327 133.077 42.345 132.995 43.0459C132.995 43.0459 133.036 43.6644 132.377 43.8293C127.111 44.8189 122.05 45.7672 116.742 46.8392C116.166 46.9217 115.219 46.5506 114.725 46.0146C109.541 40.6958 104.686 36.0366 99.6247 31.0476Z" fill="white"/>
<path d="M76.3768 38.7166C78.2284 46.6331 75.595 52.9002 70.246 58.0129C64.6912 63.0432 56.9145 66.6303 48.6029 68.6506C35.6005 71.8667 24.7378 70.7534 18.0309 65.9294C14.2043 62.9607 11.9001 58.92 11.324 53.5599C10.7891 48.2411 11.9001 43.6644 14.8215 39.2939C17.1257 35.748 20.6232 32.6968 25.1493 30.0992C29.552 27.5017 34.6541 25.605 40.6616 24.3681C52.2238 21.9354 62.2224 23.1311 68.8058 27.5429C72.6736 30.1405 75.1424 33.8101 76.3768 38.7166ZM30.9098 48.5297C31.2801 51.1273 32.638 53.3538 34.8599 54.9618C37.987 57.1883 42.1017 57.848 46.3398 56.8585C50.5367 55.8277 54.0754 53.395 56.0915 50.0553C57.4905 47.6226 57.9843 45.19 57.4494 42.5511C56.9556 40.036 55.5155 37.9332 53.3347 36.4077C50.2899 34.2636 46.3809 33.7688 42.3486 34.5522C38.9745 35.3356 35.9297 37.1086 33.7489 39.5825C31.3624 42.1801 30.4572 45.3137 30.9098 48.5297Z" fill="white"/>
<path d="M202.779 21.0284C205.701 28.4913 201.38 35.5418 192.575 36.7788C185.539 37.7683 178.42 36.2428 172.989 32.4907C169.78 30.223 167.434 27.3368 165.912 23.8321C164.389 20.245 164.225 17.3588 165.336 14.8849C167.229 10.803 172.372 8.53524 179.326 8.32908C186.197 8.16415 192.04 10.102 196.566 13.4418C199.282 15.5033 201.298 17.936 202.779 21.0284ZM177.598 22.4302C178.379 24.2032 179.614 25.6051 181.342 26.8832C183.646 28.4913 186.279 29.3159 188.666 29.1097C190.929 28.9036 192.575 27.6666 193.11 25.8112C193.521 24.4506 193.233 23.0075 192.534 21.3582C191.711 19.7914 190.6 18.2659 188.995 17.1526C186.814 15.5858 184.304 14.7199 182 14.8024C180.025 14.9261 178.544 15.7095 177.639 17.0289C176.733 18.4308 176.651 20.3274 177.598 22.4302Z" fill="white"/>
<path d="M167.969 32.2433C167.146 30.9239 166.2 31.0888 166.2 31.0888C161.015 31.7072 155.954 32.5319 150.646 33.1916C149.247 33.3565 148.713 31.9546 148.713 31.9546C148.507 31.3774 148.301 30.8002 148.054 30.2641C147.684 28.6973 148.836 28.6974 148.836 28.6974C153.115 28.1201 157.148 27.6666 161.262 27.1305C162.168 26.9656 162.085 26.2235 161.88 25.6874C161.262 24.2856 160.727 22.8837 160.11 21.5231C159.287 20.2449 158.341 20.3686 158.341 20.3686C154.309 20.6984 150.235 21.1932 146.079 21.6468C144.68 21.7292 144.186 20.4923 144.186 20.4923C143.94 19.9563 143.734 19.4203 143.528 18.843C143.075 17.3999 144.351 17.3999 144.351 17.3999C149.618 16.9052 154.638 16.4104 159.699 15.9981C159.699 15.9981 160.686 15.9568 160.316 14.6787C159.699 13.4005 159.164 12.0811 158.588 10.8029C157.971 9.56596 156.86 9.68965 156.86 9.68965C146.943 10.3494 137.109 11.1328 126.658 12.246C125.177 12.4934 125.712 13.7303 125.712 13.7303C129.209 22.8837 132.624 32.0371 136.081 42.0151C136.081 42.0151 136.574 43.4582 138.138 43.252C149.001 41.3554 159.082 39.7474 169.121 38.1806C169.574 38.2218 170.068 37.4384 169.697 36.6138C169.121 35.1294 168.586 33.7276 167.969 32.2433Z" fill="#8080A7"/>
<path d="M132.501 41.8914C128.016 38.0569 123.695 34.511 119.293 30.7589C119.334 30.7177 119.416 30.6765 119.498 30.6352C119.581 30.594 119.704 30.5116 119.786 30.4703C119.828 30.4291 119.951 30.4291 119.992 30.3466C124.477 27.914 125.917 24.6567 124.971 21.2757C124.148 18.5957 122.461 16.7402 120.568 15.627C117.4 13.7716 112.709 13.4417 104.192 14.5962C95.222 15.8744 86.54 17.2763 77.6935 18.7606C75.883 19.2141 76.2945 20.5748 76.2945 20.5748C78.9279 30.594 81.5613 40.6957 84.4827 51.5808C84.4827 51.5808 84.7296 53.2301 86.7869 53.0239C91.7245 51.9931 96.4152 50.8387 101.312 49.8903C102.135 49.6842 102.793 48.7359 102.505 47.7875C100.16 39.9123 98.0199 32.6968 95.798 25.4401C95.4688 24.2444 96.1683 23.1724 97.3616 22.925C99.0075 22.6776 100.489 22.4302 102.135 22.1416C104.974 21.688 107.731 21.3169 109.088 24.4505C109.376 25.0278 109.335 25.9761 109.006 26.7183C107.936 28.4912 105.55 29.2746 101.229 30.058C100.077 30.2642 99.8304 30.3054 99.7892 30.3054C99.172 30.5116 99.6247 31.0063 99.6247 31.0063C104.686 35.9953 109.541 40.6957 114.684 45.9733C115.178 46.5094 116.124 46.8804 116.7 46.798C122.05 45.726 127.111 44.7364 132.336 43.7881C132.995 43.6232 132.953 43.0047 132.953 43.0047C133.077 42.3037 132.501 41.8914 132.501 41.8914Z" fill="#8080A7"/>
<path d="M68.8058 27.5017C62.1812 23.1312 52.2237 21.8942 40.6615 24.3269C34.6541 25.5638 29.5519 27.4605 25.1493 30.058C20.6231 32.6556 17.1257 35.7067 14.8215 39.2527C11.9412 43.6232 10.7891 48.1999 11.324 53.5187C11.9001 58.8788 14.2043 62.9607 18.0309 65.8882C24.7378 70.7122 35.6005 71.8255 48.6028 68.6094C56.9144 66.5479 64.6912 63.002 70.2459 57.9717C75.5539 52.859 78.2284 46.5918 76.3768 38.6754C75.1424 33.8101 72.6736 30.1405 68.8058 27.5017ZM56.0915 50.0141C54.0753 53.3538 50.5367 55.7865 46.3398 56.8172C42.1017 57.8068 37.9459 57.1471 34.8599 54.9206C32.6791 53.3126 31.2801 51.0861 30.9098 48.4885C30.4572 45.3137 31.3624 42.1389 33.7489 39.4588C35.9297 36.9849 38.9745 35.2532 42.3485 34.4286C46.3809 33.6452 50.2898 34.1812 53.3347 36.284C55.5155 37.8095 56.9556 39.9536 57.4494 42.4275C57.9843 45.1487 57.4905 47.5814 56.0915 50.0141Z" fill="#8080A7"/>
<path d="M202.779 21.0284C205.701 28.4913 201.38 35.5418 192.575 36.7788C185.539 37.7683 178.42 36.2428 172.989 32.4907C169.78 30.223 167.434 27.3368 165.912 23.8321C164.389 20.245 164.225 17.3588 165.336 14.8849C167.229 10.803 172.372 8.53524 179.326 8.32908C186.197 8.16415 192.04 10.102 196.566 13.4418C199.282 15.5033 201.298 17.936 202.779 21.0284ZM177.598 22.4302C178.379 24.2032 179.614 25.6051 181.342 26.8832C183.646 28.4913 186.279 29.3159 188.666 29.1097C190.929 28.9036 192.575 27.6666 193.11 25.8112C193.521 24.4506 193.233 23.0075 192.534 21.3582C191.711 19.7914 190.6 18.2659 188.995 17.1526C186.814 15.5858 184.304 14.7199 182 14.8024C180.025 14.9261 178.544 15.7095 177.639 17.0289C176.733 18.4308 176.651 20.3274 177.598 22.4302Z" fill="#8080A7"/>
<path d="M137.274 40.4484C133.859 30.4704 130.444 21.317 126.987 12.1224C126.987 12.1224 126.452 10.8854 127.934 10.638C138.385 9.56601 148.219 8.82385 158.094 8.20537C158.094 8.20537 159.164 8.12292 159.822 9.31863C160.439 10.5968 160.933 11.9162 161.55 13.1944C161.921 14.4726 160.933 14.5138 160.933 14.5138C155.872 14.9261 150.852 15.3796 145.585 15.8744C145.585 15.8744 144.269 15.8744 144.763 17.3175C144.968 17.8948 145.174 18.4308 145.421 18.9668C145.421 18.9668 145.915 20.2037 147.314 20.1213C151.511 19.6677 155.543 19.2142 159.575 18.8843C159.575 18.8843 160.522 18.8019 161.345 20.0388C161.962 21.3994 162.497 22.8013 163.114 24.2032C163.32 24.7804 163.361 25.5226 162.497 25.6463C158.382 26.1411 154.391 26.5534 150.112 27.1306C150.112 27.1306 148.918 27.1718 149.33 28.6974C149.577 29.2334 149.782 29.8519 149.988 30.3879C149.988 30.3879 150.482 31.7898 151.881 31.6248C157.189 30.9651 162.25 30.1817 167.393 29.5633C167.393 29.5633 168.34 29.3983 169.121 30.7177C169.78 32.2021 170.273 33.604 170.932 35.0883C171.302 35.9129 170.808 36.6963 170.356 36.6551C160.316 38.1806 150.276 39.7474 139.413 41.6028C137.768 41.8915 137.274 40.4484 137.274 40.4484Z" fill="white"/>
<path d="M100.859 29.3158C100.859 29.3158 100.406 28.8211 101.024 28.6149C101.024 28.6149 101.312 28.5737 102.464 28.3675C106.784 27.5841 109.13 26.8007 110.24 25.069C110.57 24.3268 110.57 23.3785 110.323 22.8013C109.006 19.6677 106.208 20.0388 103.41 20.4923C101.764 20.7809 100.283 20.9871 98.6371 21.2345C97.4027 21.4819 96.7444 22.5539 97.0736 23.7496C99.2543 31.0063 101.394 38.2631 103.739 46.1383C104.069 47.0866 103.41 48.0349 102.546 48.2411C97.6496 49.1482 92.9589 50.2614 88.0213 51.2922C85.964 51.4984 85.7171 49.8491 85.7171 49.8491C82.8368 38.964 80.2035 28.8211 77.6112 18.8018C77.6112 18.8018 77.1998 17.4824 79.0102 16.9876C87.8567 15.5445 96.5387 14.1839 105.509 12.9057C114.026 11.7512 118.717 12.1223 121.844 13.9777C123.695 15.091 125.424 16.9876 126.205 19.6265C127.193 23.0074 125.712 26.2647 121.227 28.6974C121.185 28.7386 121.103 28.7798 121.021 28.8211C120.939 28.8623 120.815 28.9035 120.733 28.986C120.692 29.0272 120.609 29.0685 120.527 29.1097C124.93 32.903 129.25 36.4489 133.694 40.3246C133.694 40.3246 134.27 40.737 134.147 41.4379C134.147 41.4379 134.188 42.0564 133.529 42.2213C128.304 43.1696 123.243 44.1179 117.894 45.19C117.318 45.2724 116.371 44.9013 115.878 44.3653C110.734 39.0465 105.879 34.3461 100.859 29.3158Z" fill="white"/>
<path d="M77.6112 37.1086C79.4628 45.0663 76.7883 51.2922 71.4392 56.4049C65.8845 61.3939 58.1077 64.9398 49.7961 66.9602C36.8349 70.0938 25.9722 68.9393 19.2653 64.074C15.4387 61.1053 13.1756 57.0234 12.5996 51.6633C12.0647 46.3445 13.2168 41.7678 16.097 37.3972C18.4012 33.8513 21.8987 30.8414 26.4248 28.2439C30.8275 25.6463 35.9297 23.7909 41.896 22.5539C53.4582 20.1625 63.4157 21.3994 69.9991 25.8112C73.9492 28.5325 76.3768 32.2021 77.6112 37.1086ZM32.1854 46.7568C32.5145 49.3544 33.9135 51.5809 36.0943 53.1889C39.1803 55.4154 43.295 56.1163 47.5742 55.1268C51.7712 54.1372 55.3098 51.6633 57.3259 48.3648C58.7249 45.9321 59.2187 43.4995 58.6838 40.8607C58.2312 38.3456 56.7499 36.2015 54.5691 34.676C51.5243 32.5319 47.6565 31.9959 43.583 32.7793C40.209 33.5627 37.1641 35.2944 34.9833 37.7683C32.6791 40.4071 31.7328 43.5407 32.1854 46.7568Z" fill="white"/>
<path d="M203.89 19.9151C206.812 27.378 202.491 34.4286 193.686 35.6655C186.65 36.6551 179.531 35.1295 174.1 31.3774C170.891 29.1097 168.545 26.2235 167.023 22.7188C165.5 19.1317 165.336 16.2455 166.447 13.7716C168.34 9.68968 173.483 7.42196 180.437 7.2158C187.308 7.05087 193.151 8.98875 197.677 12.3285C200.393 14.3901 202.368 16.8227 203.89 19.9151ZM178.667 21.317C179.449 23.0899 180.684 24.4918 182.412 25.7699C184.716 27.378 187.349 28.2026 189.736 27.9964C191.999 27.7903 193.645 26.5533 194.18 24.6979C194.591 23.3373 194.303 21.8942 193.604 20.2449C192.781 18.6781 191.67 17.1526 190.065 16.0393C187.884 14.4313 185.374 13.6067 183.07 13.6891C181.095 13.8128 179.614 14.5962 178.708 15.9156C177.844 17.3175 177.721 19.2142 178.667 21.317Z" fill="white"/>
<defs>
<linearGradient id="paint0_linear_113_139" x1="71.9665" y1="77.4278" x2="146.936" y2="9.66459" gradientUnits="userSpaceOnUse">
<stop stop-color="#0092D3"/>
<stop offset="0.1461" stop-color="#0092D3"/>
<stop offset="0.1908" stop-color="#0894D3"/>
<stop offset="0.2591" stop-color="#1D9BD5"/>
<stop offset="0.3423" stop-color="#40A5D7"/>
<stop offset="0.4326" stop-color="#6DB3DA"/>
<stop offset="0.5384" stop-color="#43A6D7"/>
<stop offset="0.6473" stop-color="#1F9BD5"/>
<stop offset="0.7358" stop-color="#0894D4"/>
<stop offset="0.7921" stop-color="#0092D3"/>
<stop offset="1" stop-color="#0092D3"/>
</linearGradient>
<linearGradient id="paint1_linear_113_139" x1="10.5313" y1="56.9709" x2="201.445" y2="17.4578" gradientUnits="userSpaceOnUse">
<stop stop-color="#140958"/>
<stop offset="0.1673" stop-color="#1F1968"/>
<stop offset="0.4494" stop-color="#2E3180"/>
<stop offset="0.6256" stop-color="#2B2D7C"/>
<stop offset="0.7968" stop-color="#242170"/>
<stop offset="0.9653" stop-color="#170E5D"/>
<stop offset="1" stop-color="#140958"/>
</linearGradient>
<linearGradient id="paint2_linear_113_139" x1="10.257" y1="55.5875" x2="201.271" y2="16.0534" gradientUnits="userSpaceOnUse">
<stop stop-color="#140958"/>
<stop offset="0.1673" stop-color="#1F1968"/>
<stop offset="0.4494" stop-color="#2E3180"/>
<stop offset="0.6256" stop-color="#2B2D7C"/>
<stop offset="0.7968" stop-color="#242170"/>
<stop offset="0.9653" stop-color="#170E5D"/>
<stop offset="1" stop-color="#140958"/>
</linearGradient>
<linearGradient id="paint3_linear_113_139" x1="10.4609" y1="56.6011" x2="201.46" y2="17.0701" gradientUnits="userSpaceOnUse">
<stop stop-color="#140958"/>
<stop offset="0.1673" stop-color="#1F1968"/>
<stop offset="0.4494" stop-color="#2E3180"/>
<stop offset="0.6256" stop-color="#2B2D7C"/>
<stop offset="0.7968" stop-color="#242170"/>
<stop offset="0.9653" stop-color="#170E5D"/>
<stop offset="1" stop-color="#140958"/>
</linearGradient>
<linearGradient id="paint4_linear_113_139" x1="10.3937" y1="60.387" x2="201.33" y2="20.8691" gradientUnits="userSpaceOnUse">
<stop stop-color="#140958"/>
<stop offset="0.1673" stop-color="#1F1968"/>
<stop offset="0.4494" stop-color="#2E3180"/>
<stop offset="0.6256" stop-color="#2B2D7C"/>
<stop offset="0.7968" stop-color="#242170"/>
<stop offset="0.9653" stop-color="#170E5D"/>
<stop offset="1" stop-color="#140958"/>
</linearGradient>
<linearGradient id="paint5_linear_113_139" x1="72.0446" y1="77.5397" x2="147.011" y2="9.77943" gradientUnits="userSpaceOnUse">
<stop stop-color="#174782"/>
<stop offset="0.00181885" stop-color="#174882"/>
<stop offset="0.078762" stop-color="#0A6295"/>
<stop offset="0.1479" stop-color="#0371A0"/>
<stop offset="0.2022" stop-color="#0077A4"/>
<stop offset="0.4074" stop-color="#0092C9"/>
<stop offset="0.4382" stop-color="#0096CF"/>
<stop offset="0.5576" stop-color="#0090C5"/>
<stop offset="0.7566" stop-color="#007FAC"/>
<stop offset="0.7753" stop-color="#007DA9"/>
<stop offset="0.854" stop-color="#0071A0"/>
<stop offset="0.9948" stop-color="#005289"/>
<stop offset="1" stop-color="#005188"/>
</linearGradient>
<linearGradient id="paint6_linear_113_139" x1="71.9498" y1="77.4416" x2="146.919" y2="9.67848" gradientUnits="userSpaceOnUse">
<stop stop-color="#0092D3"/>
<stop offset="0.1461" stop-color="#0092D3"/>
<stop offset="0.1908" stop-color="#0894D3"/>
<stop offset="0.2591" stop-color="#1D9BD5"/>
<stop offset="0.3423" stop-color="#40A5D7"/>
<stop offset="0.4326" stop-color="#6DB3DA"/>
<stop offset="0.5384" stop-color="#43A6D7"/>
<stop offset="0.6473" stop-color="#1F9BD5"/>
<stop offset="0.7358" stop-color="#0894D4"/>
<stop offset="0.7921" stop-color="#0092D3"/>
<stop offset="1" stop-color="#0092D3"/>
</linearGradient>
<linearGradient id="paint7_linear_113_139" x1="10.5377" y1="56.9838" x2="201.451" y2="17.4706" gradientUnits="userSpaceOnUse">
<stop stop-color="#140958"/>
<stop offset="0.1673" stop-color="#1F1968"/>
<stop offset="0.4494" stop-color="#2E3180"/>
<stop offset="0.6256" stop-color="#2B2D7C"/>
<stop offset="0.7968" stop-color="#242170"/>
<stop offset="0.9653" stop-color="#170E5D"/>
<stop offset="1" stop-color="#140958"/>
</linearGradient>
<linearGradient id="paint8_linear_113_139" x1="10.2493" y1="55.5883" x2="201.264" y2="16.0541" gradientUnits="userSpaceOnUse">
<stop stop-color="#140958"/>
<stop offset="0.1673" stop-color="#1F1968"/>
<stop offset="0.4494" stop-color="#2E3180"/>
<stop offset="0.6256" stop-color="#2B2D7C"/>
<stop offset="0.7968" stop-color="#242170"/>
<stop offset="0.9653" stop-color="#170E5D"/>
<stop offset="1" stop-color="#140958"/>
</linearGradient>
<linearGradient id="paint9_linear_113_139" x1="10.4772" y1="56.6036" x2="201.476" y2="17.0728" gradientUnits="userSpaceOnUse">
<stop stop-color="#140958"/>
<stop offset="0.1673" stop-color="#1F1968"/>
<stop offset="0.4494" stop-color="#2E3180"/>
<stop offset="0.6256" stop-color="#2B2D7C"/>
<stop offset="0.7968" stop-color="#242170"/>
<stop offset="0.9653" stop-color="#170E5D"/>
<stop offset="1" stop-color="#140958"/>
</linearGradient>
<linearGradient id="paint10_linear_113_139" x1="10.425" y1="60.3923" x2="201.358" y2="20.8751" gradientUnits="userSpaceOnUse">
<stop stop-color="#140958"/>
<stop offset="0.1673" stop-color="#1F1968"/>
<stop offset="0.4494" stop-color="#2E3180"/>
<stop offset="0.6256" stop-color="#2B2D7C"/>
<stop offset="0.7968" stop-color="#242170"/>
<stop offset="0.9653" stop-color="#170E5D"/>
<stop offset="1" stop-color="#140958"/>
</linearGradient>
</defs>
</svg>
