<svg width="301" height="128" viewBox="0 0 301 128" fill="none" xmlns="http://www.w3.org/2000/svg">
<path d="M122.469 30.634C122.469 30.634 123.633 28.8943 124.602 27.5412C126.348 25.2216 129.45 21.9354 131.971 19.8091C132.747 19.2292 133.523 18.456 133.523 18.456C133.523 18.456 132.165 18.6493 131.39 18.8426C129.644 19.2292 126.929 20.9689 125.572 22.1287C123.439 24.0617 120.918 26.9613 122.081 29.8608C122.275 30.0541 122.469 30.634 122.469 30.634ZM134.686 33.9202C138.177 33.7269 141.474 32.7604 144.382 31.0206C147.291 29.2809 151.752 26.1881 151.364 22.322C151.17 21.1622 150.394 20.1957 149.424 19.8091C148.067 19.2292 147.485 19.4225 145.74 19.8091C144.576 20.1957 143.995 20.389 142.831 20.9689C139.34 22.9019 134.492 27.1546 131.971 30.4407C131.39 31.2139 130.808 32.1805 130.226 32.7604C129.838 33.147 129.644 33.5336 129.644 33.5336C129.838 33.9202 133.329 33.9202 134.686 33.9202ZM125.766 40.2992C125.378 40.6858 124.99 41.6523 124.602 42.2322C124.408 42.6188 124.02 43.0054 123.827 43.1987C122.857 43.7786 122.081 43.9719 121.305 43.1987C120.142 42.0389 119.366 40.4925 119.366 38.7528V36.6264C119.172 35.6599 118.203 34.5001 117.621 33.5336C117.039 32.3738 116.457 30.4407 116.457 29.0876C116.263 25.0283 118.397 21.3555 121.112 18.456C123.827 15.5564 127.511 13.0435 131.39 11.497C135.074 9.95062 140.504 8.79081 144.576 10.3372C145.934 10.7238 147.679 11.8837 148.649 13.0435C148.843 13.2368 149.037 13.6234 149.231 13.6234C149.424 13.8167 149.812 13.8167 150.2 13.8167C151.558 14.01 153.303 14.9765 154.079 15.7497C155.63 17.1028 156.406 18.2626 156.794 20.1957C157.569 23.8684 155.436 27.9278 153.109 30.4407C149.037 34.6934 144.77 37.5929 139.534 39.7193C137.207 40.6858 133.523 41.459 131.002 41.2657C130.226 41.2657 129.256 41.0724 128.481 40.8791C128.093 40.8791 126.541 40.4925 126.348 40.2992C126.154 40.4925 125.96 40.2992 125.766 40.2992ZM130.614 48.4179C130.808 48.4179 131.002 48.6112 131.196 48.6112C133.135 49.3844 133.911 51.1241 134.298 52.8639C135.462 57.3098 135.85 66.975 136.044 70.6477C136.238 73.5473 136.238 76.2535 136.432 79.1531C136.625 81.4727 136.625 84.7588 136.238 86.8852C136.044 87.6584 135.462 88.6249 134.686 89.2048C133.717 89.7847 131.777 89.7847 130.614 89.5914C127.899 89.0115 126.929 87.2718 126.541 84.5655C125.572 78.1865 126.154 65.6219 126.541 60.2094C126.735 58.4697 127.317 52.8639 128.287 50.5442C128.675 49.9643 129.45 48.2246 130.614 48.4179ZM46.6449 58.083C46.6449 58.083 42.5725 58.2763 39.8575 58.663C36.3669 59.0496 29.7735 60.2094 25.895 61.5625C24.7315 61.9491 22.4044 62.9156 22.2105 64.0754C22.0165 65.2353 22.7922 66.2018 23.5679 67.1683C24.1497 67.7482 26.8646 70.4544 27.6403 71.0343C30.937 73.7406 37.5304 77.9932 42.3785 79.9263C44.1238 80.6995 46.8388 81.666 46.8388 81.666C46.8388 81.666 46.6449 73.7406 46.6449 66.0085C46.4509 62.1424 46.6449 58.083 46.6449 58.083ZM120.53 61.1759C120.724 63.3022 120.142 67.3616 120.142 67.7482C119.948 68.908 118.978 71.8075 118.978 72.0008C118.203 73.7406 117.427 75.0937 116.651 76.4468C115.294 78.7664 112.191 82.6325 110.252 84.1789C103.271 90.1713 92.6048 93.6508 83.2964 94.6173C77.0909 95.3905 69.9157 95.1972 63.1284 94.0374C60.8013 93.6508 57.5046 92.8776 57.5046 92.8776C57.5046 92.8776 57.5046 94.2307 57.3107 95.1972C57.3107 95.5838 56.9228 96.7436 56.7289 97.1302C56.341 98.0967 55.3714 98.6767 54.4018 98.87C53.0443 99.0633 51.493 99.2566 50.3294 98.6766C48.1962 97.7101 47.4206 95.7771 47.0327 93.6508C46.6449 91.911 46.4509 88.6249 46.4509 88.6249C46.4509 88.6249 44.8995 87.8517 43.5421 87.2718C39.4697 85.3388 35.5912 82.8258 32.2945 80.3129C31.3249 79.5397 27.4464 76.2535 26.4768 75.4803C23.9558 73.1607 21.8226 70.841 20.0773 67.7482C18.7198 65.4285 18.332 63.3022 19.3016 60.7893C20.6591 57.3098 25.7011 54.7969 28.9978 53.2505C31.5188 52.0907 39.2758 49.5777 42.3785 49.1911C43.9299 48.9978 46.257 48.6112 46.4509 48.4179C46.4509 48.4179 46.6449 48.4179 46.6449 48.2246C46.6449 48.0313 46.8388 44.7451 46.8388 43.392C46.8388 42.2322 47.8084 34.1135 48.0023 32.3738C48.1962 31.4072 48.778 27.9278 49.5537 26.9613C49.9416 26.3814 50.9112 26.3814 51.493 26.768C55.1775 29.0876 56.341 37.013 56.535 41.0724C56.7289 43.5853 56.7289 47.2581 56.7289 47.2581C56.7289 47.2581 60.9952 47.0648 63.5162 47.2581C66.0372 47.2581 68.7522 47.6447 71.4671 48.2246C74.7638 48.8045 81.3572 50.1576 85.0418 52.0907C88.1445 53.6371 91.0534 56.3433 92.023 59.0496C92.7987 61.5625 92.7987 63.3022 91.4412 65.6219C89.8899 68.1348 87.1749 70.0678 84.2661 70.2611C83.4904 70.2611 80.1937 69.8745 79.224 69.1013C78.8362 68.7147 78.8362 68.3281 79.224 67.9415C79.418 67.7482 80.7754 66.975 81.7451 66.5884C82.1329 66.3951 82.5207 66.0085 82.9086 65.8152C83.6843 65.2352 84.2661 64.462 84.2661 63.6888C84.0721 62.529 83.1025 61.9491 81.939 61.5625C76.897 59.6295 66.619 57.8897 61.577 57.5031C59.6377 57.3098 56.9228 57.3098 56.9228 57.3098L57.5046 84.5655C57.5046 84.5655 59.8317 84.9521 61.577 85.3388C62.5466 85.5321 67.0069 85.9187 68.1704 85.9187C77.0909 86.112 86.7871 85.3388 94.9319 81.4727C98.4225 79.733 101.719 77.7999 104.24 74.9004C107.537 71.2276 109.282 66.0085 108.7 60.7893C108.119 54.9902 104.046 48.0313 100.75 43.7786C92.023 32.7604 77.2848 23.4818 64.098 18.2626C50.7173 12.8502 37.5304 9.56402 23.374 9.17741C19.6895 8.98411 11.7386 9.17741 7.66619 10.3372C7.08442 10.5305 6.50265 10.7238 5.92087 10.7238C5.53303 10.7238 4.75733 11.1104 4.56341 11.3037C4.36948 11.3037 4.36948 11.497 4.36948 11.497C4.36948 11.497 4.56341 11.6903 4.75733 11.6903C5.14518 11.8837 6.89049 12.077 7.86011 12.077C8.63581 12.2703 9.60543 12.6569 9.79935 13.2368C10.1872 13.8167 10.1872 14.2033 9.79935 14.7832C8.82973 15.943 5.53303 15.7497 3.98164 15.5564C2.43025 15.3631 0.49101 14.7832 0.103162 13.4301C-0.284685 11.8837 0.49101 10.3372 1.2667 8.79081C3.01202 5.89126 5.3391 4.34484 8.82973 3.37833C13.6778 2.0252 20.0773 1.05869 24.7315 0.865388C35.2034 0.478782 45.2874 2.21851 55.5654 5.31135C61.3831 7.05108 69.14 9.95062 74.7638 12.6569C78.8362 14.5899 85.2357 18.0693 88.7263 20.5823C89.8899 21.3555 96.4833 26.1881 97.4529 26.9613C99.586 28.701 102.301 31.2139 104.434 33.147C108.313 37.013 113.161 43.0054 115.488 47.6447C116.07 48.8045 116.457 49.9643 117.233 51.1241C117.427 51.5107 118.591 54.217 118.784 54.9902C118.978 55.7634 119.172 56.9232 119.172 56.9232C120.142 58.083 120.53 60.4027 120.53 61.1759ZM166.102 63.3022H166.49C169.786 63.6888 172.889 64.2687 175.41 65.4286C177.737 66.3951 178.901 67.7482 180.258 69.8745C182.004 73.354 182.198 77.9932 180.646 81.666C179.483 84.3722 176.768 86.4986 174.247 87.8517C171.726 89.0115 169.205 89.5914 166.296 89.978C161.254 90.5579 155.63 89.5914 151.17 87.2718C148.455 85.9187 145.158 83.599 143.413 80.6995C142.249 78.5731 142.249 75.6736 143.801 73.7406C146.128 70.4544 151.364 69.8745 155.048 69.8745C157.957 70.0678 163.193 70.841 166.102 71.8075C166.878 72.0009 169.786 73.1607 170.174 73.7406C170.562 74.1272 170.756 74.5138 170.562 75.0937C169.98 77.0267 165.132 77.9932 163.775 78.1865C160.09 78.7665 158.151 77.4133 154.079 75.6736C153.109 75.287 151.752 74.9004 150.588 74.7071C148.649 74.5138 146.516 75.0937 146.128 77.0267C145.934 77.9932 147.097 79.1531 148.067 79.5397C150.2 80.5062 152.139 80.8928 154.273 80.8928C160.672 81.0861 168.041 79.9263 173.277 76.2535C174.053 75.6736 174.635 74.9004 174.635 74.1272C174.635 73.9339 174.441 72.9674 174.053 72.7741H173.859C173.665 72.7741 173.471 72.3875 173.277 72.1942C172.889 71.8076 171.338 71.0343 171.144 71.0343C167.653 69.4879 161.06 68.908 157.569 68.5214C154.079 68.1348 148.455 67.7482 147.097 67.5549C145.74 67.3616 144.188 67.1683 143.025 66.5884C141.861 66.0085 140.698 64.8486 140.31 63.4955C139.728 60.9826 140.504 58.083 141.861 56.15C145.352 51.1241 153.691 49.1911 159.896 48.4179C165.908 47.6447 175.604 47.6447 181.422 50.7375C182.391 51.1241 182.779 51.704 182.585 52.6706C182.198 54.4103 180.84 55.5701 179.095 56.15C177.349 56.7299 173.665 56.9232 172.114 56.9232C164.938 57.3098 156.406 57.1165 149.618 58.8563C149.037 59.0496 148.261 59.2429 147.873 59.6295C146.903 60.7893 149.812 61.1759 150.394 61.1759H150.782L166.102 63.3022ZM188.209 89.5914C185.3 88.6249 184.719 83.9856 184.525 81.666C184.137 74.1272 186.076 63.4955 188.597 56.3433C189.373 54.217 190.342 50.9308 192.669 51.1241C194.221 51.3174 195.384 52.4773 196.16 53.6371C198.487 56.7299 201.396 60.9826 203.335 64.0754C205.468 67.3616 207.602 70.841 209.735 73.7406C209.929 74.1272 210.316 74.5138 210.51 74.7071C210.898 75.0937 211.286 75.0937 211.286 74.7071C211.286 74.5138 211.286 70.841 211.092 70.0678C210.898 68.908 210.898 67.9415 210.704 66.7817C210.316 63.6888 209.347 59.4362 208.571 56.5366C207.795 53.2505 206.632 49.9643 205.856 46.6782C205.662 45.7117 205.468 44.5518 205.468 43.5853C205.468 42.2322 206.438 41.459 207.795 41.8456C210.704 42.8121 214.583 49.1911 215.746 51.3174C216.134 52.0907 217.686 55.7634 218.073 56.9232C219.237 60.596 220.013 63.8821 220.401 67.9415C220.788 71.8075 220.401 77.4133 218.849 81.0861C218.267 82.4392 217.104 84.3722 215.94 85.3388C214.389 86.8852 211.092 88.045 208.959 86.6919C206.632 85.3388 202.56 78.5731 201.978 77.4133C199.651 73.354 195.772 65.6219 195.19 64.8486C194.997 64.6553 194.803 64.462 194.609 64.462C194.415 64.462 194.221 64.8486 194.221 65.2352C193.833 67.5549 193.639 77.9932 193.639 78.3798C193.639 80.1196 193.445 84.5655 193.057 86.6919C192.669 88.045 192.475 89.2048 191.118 89.7847C189.954 90.1713 189.373 89.978 188.209 89.5914ZM227.576 89.0115C227.188 88.8182 226.8 88.2383 226.412 87.8517C226.412 87.8517 225.249 86.3053 225.055 85.7254C224.861 85.3388 224.667 84.9521 224.667 84.7588C223.697 82.2459 223.697 79.9263 224.279 77.4133C224.861 74.9004 225.249 74.9004 226.412 71.6142C226.412 71.4209 226.606 71.2276 226.606 71.0343C226.606 70.6477 225.83 67.5549 225.83 66.5884C225.83 65.0419 226.994 64.0754 228.933 63.8821H229.321C230.097 63.6888 230.678 62.1424 231.066 60.9826C231.648 59.2429 232.618 56.7299 232.618 56.7299C232.618 56.7299 230.097 56.15 228.739 55.7634C227.188 55.1835 226.218 54.4103 225.443 53.0572C224.667 51.5107 225.249 50.5442 226.8 50.1576C227.382 49.9643 232.23 48.9978 233.781 48.8045C235.72 48.6112 237.466 48.2246 239.211 48.0313C240.763 47.838 247.938 47.0648 250.265 47.0648C253.755 47.2581 256.083 48.6112 258.022 51.5107C259.185 53.0572 259.767 54.9902 258.216 55.9567C255.695 57.5031 247.55 57.6964 245.998 57.6964H240.375L238.629 63.3022H247.744C248.519 63.3022 249.295 63.3022 249.877 63.4955C251.622 63.8821 252.204 65.2353 252.204 66.975C252.204 69.1013 251.816 70.2611 250.071 70.4544C249.101 70.6477 239.017 70.6477 237.66 70.841C236.884 71.0343 235.914 71.0343 235.914 71.0343C235.914 71.0343 235.139 72.9674 234.557 74.9004C233.975 76.8334 233.393 78.9598 233.393 78.9598H234.363C235.139 78.9598 235.72 78.9598 236.302 78.7665C239.405 78.1865 244.059 77.6066 247.744 77.0267C249.683 76.6401 250.847 76.6401 251.816 77.9932C252.786 79.1531 253.174 80.1196 253.368 81.666C253.368 83.0191 252.398 83.9856 251.04 84.9521C247.162 88.045 240.181 91.3311 235.139 91.911C232.812 92.1043 232.23 91.911 230.097 91.3311C229.709 91.1378 228.351 90.5579 228.351 90.5579C228.739 89.7847 227.964 89.2048 227.576 89.0115ZM291.571 60.9826C289.05 63.1089 285.559 67.5549 284.008 69.8745C281.874 72.9674 279.935 76.4468 277.996 79.1531C277.608 79.733 276.251 81.8593 276.445 82.0526C276.445 82.2459 277.802 82.2459 279.159 81.8593C281.874 81.4727 285.559 79.5397 287.692 77.7999C290.795 75.287 292.928 72.0008 293.898 68.1348C294.285 66.3951 294.479 62.7223 293.316 60.9826C292.734 60.7893 291.958 60.596 291.571 60.9826ZM270.821 92.8776C270.821 92.8776 270.045 95.3905 269.463 97.1302C268.494 100.416 266.167 109.115 265.585 112.015C264.809 116.074 262.482 126.706 262.482 126.899C262.288 127.285 262.288 127.285 261.9 127.479C260.931 128.059 260.543 127.865 259.379 127.285C257.828 126.512 256.664 125.739 255.501 124.193C253.368 121.293 253.755 115.881 254.337 112.788C255.889 101.576 257.44 96.7436 261.706 85.7254V85.3388C260.349 82.4392 259.573 79.1531 259.573 76.4468C259.573 67.7482 264.615 59.2429 270.239 52.284C270.627 51.704 273.342 48.4179 274.699 48.6112C275.863 48.6112 276.251 50.1576 276.057 51.3174C275.475 55.3768 272.566 59.4362 270.627 62.7223C268.494 66.5884 267.912 68.1348 266.942 71.6142C266.748 72.1942 266.36 74.7071 266.36 75.0937C266.36 76.0602 266.554 77.22 266.554 77.22C266.554 77.22 270.045 72.1942 272.372 69.2946C273.73 67.5549 274.505 66.5884 275.669 65.2352C276.832 64.0754 280.905 59.6295 282.068 58.663C284.589 56.3433 285.753 55.3768 288.468 53.8304C290.601 52.6706 292.54 52.4773 294.673 53.8304C297.97 55.9567 299.521 60.596 299.909 64.2687C300.297 68.7147 299.521 73.7406 297.388 77.6066C295.061 82.2459 291.764 85.5321 287.498 88.2383C283.038 91.1378 277.802 93.2642 272.76 93.0709C271.596 92.8776 270.821 92.8776 270.821 92.8776Z" fill="black"/>
</svg>
