<?xml version="1.0" encoding="UTF-8"?>
<svg id="Layer_1" data-name="Layer 1" xmlns="http://www.w3.org/2000/svg" viewBox="0 0 531.45 236.62">
  <defs>
    <style>
      .cls-1 {
        fill: #494949;
      }
    </style>
  </defs>
  <path d="m0,74.54c3.79-.18,6.38-.89,7.77-2.13,1.39-1.24,2.08-3.94,2.08-8.09V14.82c0-4.34-.82-7.16-2.46-8.48-1.09-.88-3.55-1.48-7.38-1.8V1.7h36.04c7.47,0,13.53.78,18.16,2.35,8.97,3.17,13.45,8.88,13.45,17.12,0,6.09-2.24,10.88-6.73,14.38-3.43,2.62-7.05,4.3-10.88,5.03l22.53,31.88c.62.88,1.28,1.46,1.97,1.75.69.26,1.55.42,2.57.49v2.68h-22.91l-23.24-35h-2.95v21.93c0,3.94.66,6.6,1.97,7.98,1.31,1.35,3.94,2.1,7.88,2.24v2.84H0v-2.84Zm28-35.77c7.33-.11,12.56-1.13,15.7-3.06,3.17-1.97,4.76-6.49,4.76-13.56,0-4.34-.6-7.77-1.8-10.28-2.08-4.27-5.87-6.4-11.38-6.4-2.99,0-4.96.38-5.91,1.15-.91.73-1.37,1.95-1.37,3.66v28.49Zm53.65,12.91c0-8.6,2.28-15.28,6.84-20.02,4.59-4.78,10.12-7.16,16.57-7.16,3.68,0,7.15.97,10.39,2.9,3.25,1.93,5.74,4.61,7.49,8.04,1.31,2.59,2.22,5.94,2.74,10.06.26,1.93.38,3.41.38,4.43h-28.55c.26,4.48.98,8.37,2.19,11.65,2.19,6.16,6.03,9.24,11.54,9.24,2.62,0,5.1-.82,7.44-2.46,1.42-.98,3.19-2.64,5.3-4.98l2.57,1.59c-3.46,5.69-7.47,9.64-12.03,11.87-2.95,1.42-6.34,2.13-10.17,2.13-5.5,0-10.66-2.17-15.48-6.51-4.81-4.34-7.22-11.27-7.22-20.78Zm30.62-5.91c-.07-6.6-.58-11.21-1.53-13.84-.95-2.62-2.84-3.94-5.69-3.94s-4.92,1.51-6.02,4.54c-1.06,3.03-1.66,7.44-1.8,13.23h15.04Zm18.43-15.04v-3.12c.98-.91,2.21-1.99,3.66-3.23,1.93-1.79,3.76-3.63,5.47-5.52,3.39-3.72,6.47-7.71,9.24-11.98h2.84v18.92h10.66v4.92h-10.66v33.69c0,1.57.24,2.88.71,3.94.73,1.64,1.93,2.46,3.61,2.46,1.46,0,2.68-.51,3.66-1.53.98-1.06,1.97-2.5,2.95-4.32l2.68,1.31c-1.31,3.06-2.88,5.56-4.7,7.49-3.21,3.39-7.13,5.09-11.76,5.09-2.62,0-4.92-.49-6.89-1.48-3.79-1.9-5.69-5.34-5.69-10.34V30.73h-5.8Zm60.05,40.25c1.82,0,3.52-.55,5.09-1.64.88-.66,1.91-1.68,3.12-3.06v-16.35c-2.99.73-5.61,1.88-7.88,3.45-3.83,2.66-5.74,6.05-5.74,10.17,0,2.44.55,4.3,1.64,5.58,1.13,1.24,2.39,1.86,3.77,1.86Zm-21.71-4.05c0-5.03,2.42-9.02,7.27-11.98,4.85-2.95,12.45-5.92,22.8-8.91v-8.15c0-3.32-.71-5.76-2.13-7.33-1.38-1.6-3.87-2.41-7.44-2.41-2.01,0-3.66.38-4.98,1.15-1.28.73-1.91,1.66-1.91,2.79,0,.44.07.8.22,1.09.15.29.36.6.66.93l.66.77c.51.62.91,1.31,1.2,2.08.33.73.49,1.51.49,2.35,0,2.11-.71,3.76-2.13,4.92-1.39,1.13-3.01,1.7-4.87,1.7-2.15,0-3.99-.64-5.52-1.91-1.49-1.28-2.24-3.12-2.24-5.52,0-4.3,2.02-7.71,6.07-10.23,4.05-2.52,9.02-3.77,14.93-3.77,6.34,0,11.65,1.22,15.91,3.66,4.23,2.48,6.34,7.04,6.34,13.67v27.13c0,.8.2,1.49.6,2.08.44.55.91.82,1.42.82.44,0,.82-.07,1.15-.22.36-.18.91-.64,1.64-1.37l1.7,2.35c-2.19,2.55-4.61,4.34-7.27,5.36-1.68.66-3.45.98-5.31.98-3.32,0-5.74-.97-7.27-2.9-.88-1.09-1.51-2.72-1.91-4.87-3.1,3.1-6.6,5.29-10.5,6.56-2.37.8-4.7,1.2-7,1.2-3.06,0-5.93-.97-8.59-2.9-2.66-1.97-3.99-5.01-3.99-9.13Zm59.88-58.24c0-2.41.84-4.45,2.51-6.12,1.71-1.71,3.77-2.57,6.18-2.57s4.39.86,6.07,2.57c1.71,1.68,2.57,3.72,2.57,6.12s-.86,4.47-2.57,6.18c-1.68,1.68-3.7,2.52-6.07,2.52s-4.47-.84-6.18-2.52c-1.68-1.71-2.51-3.77-2.51-6.18Zm-4.92,66.01c1.97-.33,3.32-.82,4.05-1.48,1.09-.98,1.64-2.75,1.64-5.3v-32.92c0-2.26-.38-3.79-1.15-4.59-.77-.84-2.28-1.46-4.54-1.86v-2.73h21.49v42.55c0,2.44.36,4.01,1.09,4.7.73.69,2.1,1.24,4.1,1.64v2.68h-26.69v-2.68Zm31.17,0c1.97-.47,3.35-1.09,4.16-1.86.84-.8,1.26-2.44,1.26-4.92V10.88c0-2.37-.38-3.92-1.15-4.65-.77-.73-2.19-1.33-4.26-1.8V1.7h21.22v66.23c0,2.48.4,4.1,1.2,4.87.8.77,2.22,1.4,4.27,1.91v2.68h-26.69v-2.68ZM41.51,157.27c4.67,0,9.39.88,14.16,2.62,4.78,1.71,7.44,2.57,7.98,2.57,1.42,0,2.55-.55,3.39-1.64.88-1.09,1.42-2.24,1.64-3.45h3.12v26.2h-2.84c-2.7-5.69-5.45-10.17-8.26-13.45-5.25-6.05-11.19-9.08-17.83-9.08-7.51,0-12.85,3.24-16.02,9.73-3.14,6.45-4.7,15.13-4.7,26.03,0,8.02.93,14.62,2.79,19.8,3.46,9.7,9.9,14.55,19.3,14.55,5.76,0,11.12-1.6,16.08-4.81,2.84-1.86,6.2-4.83,10.06-8.91l3.34,2.73c-4.38,4.89-8.22,8.42-11.54,10.61-5.91,3.9-12.47,5.85-19.69,5.85-11.05,0-20.31-3.28-27.78-9.84-8.28-7.25-12.41-17.03-12.41-29.31s3.96-22.04,11.87-29.59c7.44-7.07,16.55-10.61,27.34-10.61Zm40.09,51.46c0-7.8,2.39-14.31,7.16-19.52,4.81-5.21,10.85-7.82,18.1-7.82s13.45,2.66,18.16,7.98c4.74,5.32,7.11,11.78,7.11,19.36s-2.33,13.91-7,19.31c-4.67,5.36-10.76,8.04-18.27,8.04s-13.33-2.61-18.1-7.82c-4.78-5.25-7.16-11.76-7.16-19.52Zm16.46,0c0,7.84.4,13.33,1.2,16.46,1.28,4.85,3.81,7.27,7.6,7.27s5.98-1.86,7.11-5.58c1.13-3.72,1.7-9.77,1.7-18.16s-.6-14.38-1.81-18.1c-1.17-3.76-3.48-5.63-6.94-5.63-3.79,0-6.33,2.43-7.6,7.27-.84,3.24-1.26,8.73-1.26,16.46Zm38.88,22.97c2.04-.26,3.54-.8,4.49-1.64.98-.88,1.48-2.59,1.48-5.14v-32.92c0-2.26-.4-3.83-1.2-4.7-.77-.88-2.35-1.46-4.76-1.75v-2.73h21.22v8.04c1.79-2.7,4.05-4.92,6.78-6.67,2.77-1.79,5.83-2.68,9.19-2.68,4.81,0,8.53,1.24,11.16,3.72,2.66,2.48,3.99,6.84,3.99,13.07v27.07c0,2.52.42,4.14,1.26,4.87.88.73,2.32,1.22,4.32,1.48v2.68h-26.3v-2.68c2-.4,3.37-.95,4.1-1.64.73-.69,1.09-2.26,1.09-4.7v-27.12c0-2.55-.25-4.47-.77-5.74-.88-2.3-2.61-3.44-5.2-3.44-1.93,0-3.72.71-5.36,2.13-1.61,1.39-2.84,2.79-3.72,4.21v29.97c0,2.44.36,4.01,1.09,4.7.73.69,2.1,1.24,4.1,1.64v2.68h-26.96v-2.68Zm92.86-74.59c4.48,0,8.57.55,12.25,1.64,5.54,1.53,8.31,4.34,8.31,8.42,0,2.84-1.2,4.83-3.61,5.96-1.2.58-2.48.88-3.83.88-2.01,0-3.72-.55-5.14-1.64-1.38-1.09-2.08-2.51-2.08-4.26,0-.84.38-2.37,1.15-4.59,0-.88-.6-1.6-1.8-2.19-1.17-.62-2.61-.93-4.32-.93-4.3,0-7.13,1.91-8.48,5.74-.8,2.26-1.2,6.32-1.2,12.2v5.25h11.43c2.19-.11,4.19-.22,6.02-.33,1.86-.15,4.34-.38,7.44-.71l5.96-.66v43.48c0,2.55.42,4.19,1.26,4.92.88.69,2.32,1.17,4.32,1.42v2.68h-26.3v-2.68c2.04-.4,3.41-.95,4.1-1.64.73-.69,1.09-2.26,1.09-4.7v-33.85c0-1.35-.26-2.19-.77-2.52-.47-.33-1.69-.49-3.66-.49h-10.88v36.69l.38,3.5c.11.99.6,1.68,1.48,2.08.91.4,2.02.71,3.34.93v2.68h-27.24v-2.68c2.3-.26,3.83-.67,4.59-1.26,1.24-.95,1.86-2.79,1.86-5.52v-36.42h-6.45v-4.92h6.45c0-5.58.47-9.66,1.42-12.25.95-3.32,2.79-6.14,5.52-8.48,2.33-2.01,4.99-3.46,7.98-4.38,2.99-.91,6.12-1.37,9.41-1.37Zm58.24,72.52c2.41,0,4.56-1.07,6.45-3.23,1.93-2.15,2.9-3.67,2.9-4.54v-27.23c0-.91-.82-2.26-2.46-4.05-1.64-1.79-3.81-2.68-6.51-2.68-3.97,0-6.67,2.75-8.09,8.26-.77,2.95-1.15,7.13-1.15,12.52,0,5.76.36,10.1,1.09,13.01,1.35,5.29,3.94,7.93,7.77,7.93Zm-25.38-19.47c0-8.86,2.1-15.84,6.29-20.94,4.23-5.14,9.3-7.71,15.2-7.71,2.95,0,5.58.73,7.88,2.19,1.42.88,3.21,2.44,5.36,4.7v-20.51c0-2.81-.55-4.54-1.64-5.2-1.09-.69-3.35-1.11-6.78-1.26v-2.74h24.12v64.42c0,2.33.44,3.96,1.31,4.87.88.88,2.59,1.42,5.14,1.64v2.57c-6.27.62-10.32,1.09-12.14,1.42-1.82.29-5.03,1.08-9.62,2.35v-7.38c-2.11,2.19-4.05,3.81-5.8,4.87-2.77,1.68-5.76,2.52-8.97,2.52-5.47,0-10.23-2.32-14.27-6.94-4.05-4.63-6.07-10.92-6.07-18.87Zm62.02-1.48c0-8.6,2.28-15.28,6.84-20.02,4.59-4.78,10.12-7.16,16.57-7.16,3.68,0,7.15.97,10.39,2.9,3.24,1.93,5.74,4.61,7.49,8.04,1.31,2.59,2.22,5.94,2.73,10.06.26,1.93.38,3.41.38,4.43h-28.55c.26,4.48.98,8.37,2.19,11.65,2.19,6.16,6.03,9.24,11.54,9.24,2.62,0,5.1-.82,7.44-2.46,1.42-.98,3.19-2.64,5.3-4.98l2.57,1.59c-3.46,5.69-7.47,9.64-12.03,11.87-2.95,1.42-6.34,2.13-10.17,2.13-5.51,0-10.66-2.17-15.48-6.51-4.81-4.34-7.22-11.27-7.22-20.78Zm30.62-5.91c-.07-6.6-.58-11.21-1.53-13.84s-2.84-3.94-5.69-3.94-4.92,1.51-6.02,4.54c-1.06,3.03-1.66,7.44-1.8,13.24h15.04Zm18.43,28.93c2.04-.26,3.54-.8,4.48-1.64.98-.88,1.48-2.59,1.48-5.14v-32.92c0-2.26-.4-3.83-1.2-4.7-.77-.88-2.35-1.46-4.76-1.75v-2.73h21.22v8.04c1.79-2.7,4.05-4.92,6.78-6.67,2.77-1.79,5.83-2.68,9.19-2.68,4.81,0,8.53,1.24,11.16,3.72,2.66,2.48,3.99,6.84,3.99,13.07v27.07c0,2.52.42,4.14,1.26,4.87.88.73,2.32,1.22,4.32,1.48v2.68h-26.3v-2.68c2.01-.4,3.37-.95,4.1-1.64.73-.69,1.09-2.26,1.09-4.7v-27.12c0-2.55-.26-4.47-.77-5.74-.88-2.3-2.61-3.44-5.2-3.44-1.93,0-3.72.71-5.36,2.13-1.6,1.39-2.84,2.79-3.72,4.21v29.97c0,2.44.36,4.01,1.09,4.7.73.69,2.1,1.24,4.1,1.64v2.68h-26.96v-2.68Zm89.41-50.31c4.7,0,8.77,1.15,12.2,3.45,3.46,2.3,5.2,5.25,5.2,8.86,0,1.93-.69,3.61-2.08,5.03-1.35,1.42-3.08,2.13-5.2,2.13-1.42,0-2.66-.33-3.72-.98-2.01-1.17-3.01-3.28-3.01-6.34,0-.33.02-.8.05-1.42.04-.66.05-1.35.05-2.08,0-1.97-.46-3.32-1.37-4.05-.95-.73-2.02-1.09-3.23-1.09-3.46,0-5.92,1.91-7.38,5.74-1.46,3.79-2.19,8.15-2.19,13.07,0,7,1.39,12.87,4.16,17.61,2.77,4.74,6.51,7.11,11.21,7.11,2.95,0,5.47-.66,7.55-1.97,1.24-.77,2.77-2.17,4.59-4.21l2.08,1.91c-3.65,5.07-7.91,8.55-12.8,10.45-2.59.98-5.34,1.48-8.26,1.48-7.18,0-13.05-2.57-17.61-7.71-4.56-5.14-6.84-11.41-6.84-18.81,0-7.8,2.41-14.44,7.22-19.91,4.85-5.51,11.3-8.26,19.36-8.26Zm23.41,27.29c0-8.6,2.28-15.28,6.84-20.02,4.59-4.78,10.12-7.16,16.57-7.16,3.68,0,7.15.97,10.39,2.9,3.24,1.93,5.74,4.61,7.49,8.04,1.31,2.59,2.22,5.94,2.73,10.06.26,1.93.38,3.41.38,4.43h-28.55c.26,4.48.98,8.37,2.19,11.65,2.19,6.16,6.03,9.24,11.54,9.24,2.62,0,5.1-.82,7.44-2.46,1.42-.98,3.19-2.64,5.3-4.98l2.57,1.59c-3.46,5.69-7.47,9.64-12.03,11.87-2.95,1.42-6.34,2.13-10.17,2.13-5.51,0-10.66-2.17-15.48-6.51-4.81-4.34-7.22-11.27-7.22-20.78Zm30.62-5.91c-.07-6.6-.58-11.21-1.53-13.84s-2.84-3.94-5.69-3.94-4.92,1.51-6.02,4.54c-1.06,3.03-1.66,7.44-1.8,13.24h15.04Z"/>
  <path class="cls-1" d="m105.56,110.52v1.32c-.61.05-1.12.18-1.5.4-.39.19-.58.6-.58,1.21,0,.21.03.41.08.61.05.19.16.49.32.9l4.01,10.57h.29l3.51-8.89c0-.12-.14-.65-.42-1.58-.28-.95-.52-1.61-.71-1.98-.28-.49-.55-.8-.82-.92-.25-.12-.76-.23-1.56-.32v-1.32h12.63v1.32c-.77.03-1.4.13-1.87.29-.46.16-.68.47-.68.92,0,.26.03.57.08.92.07.33.19.79.37,1.37l2.74,9.68h.32l3.88-10.31c.05-.18.1-.34.13-.5.04-.16.05-.31.05-.45,0-.76-.23-1.25-.68-1.48-.44-.23-1.09-.38-1.95-.45v-1.32h7.33v1.32c-.65.12-1.17.35-1.56.69-.37.32-.75.98-1.13,2l-8.39,21.62h-1.24l-5.46-16.37h-.24l-6.57,16.37h-1.32l-7.99-20.2c-.67-1.67-1.16-2.73-1.48-3.19-.32-.47-.84-.78-1.58-.92v-1.32h12Zm29.4-8.25c0-1.16.4-2.15,1.21-2.95.83-.83,1.82-1.24,2.98-1.24s2.12.41,2.93,1.24c.83.81,1.24,1.79,1.24,2.95s-.41,2.15-1.24,2.98c-.81.81-1.78,1.21-2.93,1.21s-2.15-.4-2.98-1.21c-.81-.83-1.21-1.82-1.21-2.98Zm-2.37,31.82c.95-.16,1.6-.4,1.95-.71.53-.48.79-1.33.79-2.56v-15.87c0-1.09-.18-1.83-.55-2.21-.37-.4-1.1-.7-2.19-.9v-1.32h10.36v20.51c0,1.18.18,1.93.53,2.27.35.33,1.01.6,1.98.79v1.29h-12.87v-1.29Zm15.03-21.2v-1.5c.47-.44,1.06-.96,1.77-1.56.93-.86,1.81-1.75,2.64-2.66,1.63-1.79,3.12-3.72,4.46-5.77h1.37v9.12h5.14v2.37h-5.14v16.24c0,.76.12,1.39.34,1.9.35.79.93,1.19,1.74,1.19.7,0,1.29-.25,1.77-.74.47-.51.95-1.21,1.42-2.08l1.29.63c-.63,1.48-1.39,2.68-2.27,3.61-1.55,1.63-3.44,2.45-5.67,2.45-1.26,0-2.37-.24-3.32-.71-1.83-.91-2.74-2.57-2.74-4.98v-17.51h-2.79Zm17.98,21.2c.99-.12,1.71-.39,2.16-.79.48-.42.71-1.25.71-2.48v-27.5c0-1.07-.19-1.82-.58-2.24-.39-.44-1.15-.73-2.29-.87v-1.32h10.44v15.19c1.11-1.34,2.27-2.36,3.48-3.08,1.23-.74,2.61-1.11,4.14-1.11,2.07,0,3.79.61,5.14,1.82,1.35,1.2,2.03,3.24,2.03,6.14v12.97c0,1.21.2,2.01.61,2.4.42.37,1.12.66,2.08.87v1.29h-12.68v-1.29c.97-.19,1.62-.46,1.98-.79.35-.33.53-1.09.53-2.27v-13.08c0-1.23-.12-2.15-.37-2.77-.42-1.11-1.26-1.66-2.51-1.66-.93,0-1.9.43-2.9,1.29-.98.86-1.48,1.45-1.48,1.77v14.45c0,1.18.18,1.93.53,2.27.35.33,1.01.6,1.98.79v1.29h-13v-1.29Zm46.99-2.5c0-1.27.44-2.34,1.32-3.22s1.98-1.34,3.24-1.34,2.34.45,3.22,1.34c.9.88,1.35,1.95,1.35,3.22s-.45,2.35-1.35,3.24-1.95,1.32-3.22,1.32-2.35-.44-3.24-1.32c-.88-.9-1.32-1.98-1.32-3.24Zm13.5,0c0-1.27.44-2.34,1.32-3.22s1.98-1.34,3.24-1.34,2.34.45,3.22,1.34c.9.88,1.35,1.95,1.35,3.22s-.45,2.35-1.35,3.24-1.95,1.32-3.22,1.32-2.35-.44-3.24-1.32c-.88-.9-1.32-1.98-1.32-3.24Zm13.5,0c0-1.27.44-2.34,1.32-3.22s1.98-1.34,3.24-1.34,2.34.45,3.22,1.34c.9.88,1.35,1.95,1.35,3.22s-.45,2.35-1.35,3.24-1.95,1.32-3.22,1.32-2.35-.44-3.24-1.32c-.88-.9-1.32-1.98-1.32-3.24Z"/>
</svg>