<svg width="24" height="24" viewBox="0 0 24 24" fill="none" xmlns="http://www.w3.org/2000/svg">
<path d="M9.06 1.93C7.17 1.92 5.33 3.74 6.17 6H3C2.46957 6 1.96086 6.21072 1.58579 6.58579C1.21071 6.96086 1 7.46957 1 8V10C1 10.2652 1.10536 10.5196 1.29289 10.7071C1.48043 10.8946 1.73478 11 2 11H11V8H13V11H22C22.2652 11 22.5196 10.8946 22.7071 10.7071C22.8946 10.5196 23 10.2652 23 10V8C23 7.46957 22.7893 6.96086 22.4142 6.58579C22.0391 6.21072 21.5304 6 21 6H17.83C19 2.73 14.6 0.420003 12.57 3.24L12 4L11.43 3.22C10.8 2.33 9.93 1.94 9.06 1.93ZM9 4C9.89 4 10.34 5.08 9.71 5.71C9.08 6.34 8 5.89 8 5C8 4.73479 8.10536 4.48043 8.29289 4.2929C8.48043 4.10536 8.73478 4 9 4ZM15 4C15.89 4 16.34 5.08 15.71 5.71C15.08 6.34 14 5.89 14 5C14 4.73479 14.1054 4.48043 14.2929 4.2929C14.4804 4.10536 14.7348 4 15 4ZM2 12V20C2 20.5304 2.21071 21.0391 2.58579 21.4142C2.96086 21.7893 3.46957 22 4 22H20C20.5304 22 21.0391 21.7893 21.4142 21.4142C21.7893 21.0391 22 20.5304 22 20V12H13V20H11V12H2Z" fill="black"/>
</svg>
